<?xml version="1.0" encoding="UTF-8" standalone="no"?>
<!-- Created with Inkscape (http://www.inkscape.org/) -->

<svg
   width="178.00003mm"
   height="28.932381mm"
   viewBox="0 0 178.00003 28.932381"
   version="1.1"
   id="svg1"
   inkscape:version="1.4.3 (0d15f75042, 2025-12-25)"
   sodipodi:docname="institutional.svg"
   xmlns:inkscape="http://www.inkscape.org/namespaces/inkscape"
   xmlns:sodipodi="http://sodipodi.sourceforge.net/DTD/sodipodi-0.dtd"
   xmlns="http://www.w3.org/2000/svg"
   xmlns:svg="http://www.w3.org/2000/svg">
  <sodipodi:namedview
     id="namedview1"
     pagecolor="#ffffff"
     bordercolor="#000000"
     borderopacity="0.25"
     inkscape:showpageshadow="2"
     inkscape:pageopacity="0.0"
     inkscape:pagecheckerboard="0"
     inkscape:deskcolor="#d1d1d1"
     inkscape:document-units="mm"
     inkscape:zoom="0.74386223"
     inkscape:cx="197.61724"
     inkscape:cy="211.73275"
     inkscape:window-width="1920"
     inkscape:window-height="1043"
     inkscape:window-x="0"
     inkscape:window-y="0"
     inkscape:window-maximized="1"
     inkscape:current-layer="layer1" />
  <defs
     id="defs1" />
  <g
     inkscape:label="Layer 1"
     inkscape:groupmode="layer"
     id="layer1"
     transform="translate(-52.652075,-92.33951)">
    <path
       id="path2"
       d="m 75.850607,106.02598 -1.046692,3.33692 h 2.047875 l -0.970844,-3.33692 z"
       style="fill:#154b8d;fill-opacity:1;fill-rule:nonzero;stroke:none;stroke-width:0.352778" />
    <path
       id="path3"
       d="m 86.345712,94.673771 c 0.313972,0.0035 0.481189,0.0053 0.481189,0.0053 v -0.0011 h 7.05e-4 c 0.948267,0.05186 1.722614,-0.0081 1.72967,-0.134055 0.0067,-0.125942 -0.756356,-0.270228 -1.704975,-0.322086 0,0 -3.53e-4,0 -7.06e-4,0 v -7.06e-4 c 0,0 -0.169333,-0.0095 -0.486833,-0.02752 -0.3175,-0.01305 -0.783519,-0.05786 -1.37795,-0.05856 -0.297039,-0.0035 -0.62618,-0.01376 -0.984603,-0.01305 -0.0568,0.0011 -0.115358,0.0025 -0.173566,0.0039 0.452261,0.171097 0.894291,0.353483 1.325386,0.546453 0.505883,-0.01552 0.908402,0.0028 1.191683,0.0014"
       style="fill:#154b8d;fill-opacity:1;fill-rule:nonzero;stroke:none;stroke-width:0.352778" />
    <path
       id="path4"
       d="m 52.652083,106.80559 c 0,0.92146 0.126647,1.8221 0.366183,2.69593 0.29845,-0.43145 0.62477,-0.87771 0.984956,-1.33209 0.162983,-0.20532 0.329494,-0.41452 0.499533,-0.62795 0.174978,-0.20884 0.359481,-0.41592 0.543983,-0.629 0.362303,-0.4325 0.772937,-0.84561 1.182159,-1.28058 0.844902,-0.84455 1.757539,-1.71133 2.770011,-2.52236 0.124883,-0.10301 0.250472,-0.20673 0.376414,-0.3108 0.129469,-0.0991 0.259644,-0.19861 0.390172,-0.2988 0.262466,-0.19826 0.522464,-0.40358 0.79128,-0.59937 0.543984,-0.38382 1.08832,-0.77964 1.661584,-1.1423 0.561269,-0.37994 1.153583,-0.72037 1.73743,-1.077027 0.599722,-0.330553 1.192036,-0.678039 1.807633,-0.982133 0.05997,-0.0321 0.121003,-0.06209 0.181328,-0.09313 -0.0014,-0.02434 -0.0053,-0.04833 -0.0053,-0.07303 0,-7.06e-4 3.53e-4,-0.0011 3.53e-4,-0.0018 0,-7.06e-4 -3.53e-4,-0.0011 -3.53e-4,-0.0018 0,-0.678039 0.871361,-1.228372 1.951214,-1.236839 -0.497064,-0.195439 -1.113014,-0.312561 -1.783291,-0.312561 -0.193675,0 -0.382412,0.01023 -0.565856,0.02893 0.458964,-0.271992 1.042106,-0.435328 1.678164,-0.435328 0.742244,0 1.412875,0.22225 1.897239,0.579966 0.123119,-0.04798 0.245886,-0.09631 0.368652,-0.143933 1.248481,-0.506589 2.510014,-0.916164 3.73627,-1.2827 0.617008,-0.171803 1.221316,-0.346428 1.822097,-0.4826 0.299861,-0.06985 0.593372,-0.150283 0.888647,-0.208139 0.294569,-0.06068 0.585258,-0.12065 0.872419,-0.179564 0.286103,-0.06315 0.5715,-0.108655 0.851959,-0.15628 0.280458,-0.04762 0.556683,-0.09454 0.828322,-0.140406 0.5461,-0.07267 1.072444,-0.149577 1.579739,-0.206375 0.509058,-0.04551 0.99448,-0.104422 1.458736,-0.132997 0.464608,-0.0254 0.904169,-0.05927 1.31833,-0.07303 0.348545,-0.0078 0.677333,-0.01517 0.98672,-0.02187 -3.006373,-1.138061 -6.46042,-1.786114 -10.134953,-1.786114 -11.620852,0 -21.041782,6.476647 -21.041782,14.466"
       style="fill:#154b8d;fill-opacity:1;fill-rule:nonzero;stroke:none;stroke-width:0.352778" />
    <path
       id="path5"
       d="m 86.801288,106.02598 -1.046692,3.33692 h 2.047875 l -0.970844,-3.33692 z"
       style="fill:#154b8d;fill-opacity:1;fill-rule:nonzero;stroke:none;stroke-width:0.352778" />
    <path
       id="path6"
       d="m 88.924905,113.23098 -0.455083,-1.54728 h -3.443111 l -0.485422,1.54728 h -3.108678 -0.243417 -3.214863 l -0.455084,-1.54728 h -3.443463 l -0.485423,1.54728 h -3.352094 l 3.989211,-10.83028 h 3.26143 l 3.8227,10.49761 3.866797,-10.49761 h 3.261078 l 3.943702,10.83028 z m -19.414418,0 H 66.173562 V 102.4007 h 3.336925 z M 85.154064,94.672048 c -0.05468,0.0018 -0.109714,0.0035 -0.167217,0.006 -0.292453,0.0099 -0.616303,0.01482 -0.968375,0.0314 -0.351367,0.02364 -0.731661,0.04939 -1.138061,0.07691 -0.406047,0.0321 -0.836436,0.08537 -1.290108,0.13088 -0.453673,0.04868 -0.927806,0.128411 -1.423459,0.195792 -0.494241,0.07832 -1.006475,0.177094 -1.5367,0.272344 -0.263525,0.05715 -0.531636,0.115359 -0.803627,0.174272 -0.271992,0.05891 -0.54857,0.116064 -0.825148,0.1905 -0.277636,0.07056 -0.558799,0.141817 -0.843491,0.214137 -0.285397,0.0695 -0.568678,0.161572 -0.857603,0.242711 -0.579261,0.159455 -1.160639,0.357011 -1.753305,0.551038 -1.17722,0.411692 -2.38372,0.865012 -3.571522,1.411464 -0.03986,0.01764 -0.07973,0.03528 -0.119592,0.05292 0.02117,0.09701 0.03563,0.195439 0.03669,0.296333 h -7.06e-4 c 0,0.0035 7.06e-4,0.0071 7.06e-4,0.01094 0,0.681567 -0.879828,1.23437 -1.967089,1.237545 0.499886,0.199319 1.122539,0.318916 1.800225,0.318916 0.193675,0 0.382764,-0.0106 0.566208,-0.0289 -0.458964,0.27164 -1.042458,0.43533 -1.678516,0.43533 -0.779992,0 -1.47955,-0.24624 -1.968147,-0.636416 -0.06421,0.03669 -0.129117,0.07267 -0.19297,0.110419 -0.579614,0.319617 -1.134533,0.681217 -1.696155,1.024467 -0.545395,0.36901 -1.098198,0.72038 -1.618897,1.10914 -0.532695,0.37147 -1.035403,0.77399 -1.537053,1.1631 -0.248003,0.19827 -0.486128,0.40535 -0.727075,0.60537 -0.119592,0.10054 -0.239183,0.20073 -0.35807,0.30057 -0.115005,0.10407 -0.229305,0.20814 -0.343605,0.3115 -0.925336,0.81245 -1.748014,1.67076 -2.504722,2.49837 -0.364772,0.42616 -0.732367,0.82938 -1.050925,1.24848 -0.162631,0.20673 -0.325967,0.40711 -0.480131,0.60854 -0.148166,0.20532 -0.293864,0.40676 -0.436386,0.60396 -0.569383,0.78952 -1.035402,1.54728 -1.427339,2.22814 -0.0695,0.12489 -0.136525,0.24695 -0.201788,0.36689 3.04941,5.40456 10.685285,9.23678 19.623968,9.23678 11.620852,0 21.041782,-6.477 21.041782,-14.46635 0,-5.08318 -3.814233,-9.553229 -9.581796,-12.133445"
       style="fill:#154b8d;fill-opacity:1;fill-rule:nonzero;stroke:none;stroke-width:0.352778" />
    <path
       id="path7"
       d="m 97.273036,105.04686 h -0.473075 v -2.56858 h 0.473075 z"
       style="fill:#154b8d;fill-opacity:1;fill-rule:nonzero;stroke:none;stroke-width:0.352778" />
    <path
       id="path8"
       d="m 99.532368,102.47842 h 0.473072 v 2.56857 h -0.418391 l -1.124303,-1.80093 0.02893,1.80093 h -0.469195 v -2.56857 h 0.432858 l 1.135239,1.81539 z"
       style="fill:#154b8d;fill-opacity:1;fill-rule:nonzero;stroke:none;stroke-width:0.352778" />
    <path
       id="path9"
       d="m 100.94027,104.28295 c 0.0621,0.0945 0.25471,0.38911 0.79657,0.38911 0.091,0 0.18592,-0.007 0.27658,-0.0434 0.18556,-0.0765 0.21837,-0.20743 0.21837,-0.29492 0,-0.16369 -0.11289,-0.22154 -0.19262,-0.25435 -0.0582,-0.0219 -0.0656,-0.0258 -0.29845,-0.0801 l -0.30938,-0.0656 c -0.16369,-0.0399 -0.24377,-0.0582 -0.32385,-0.091 -0.11642,-0.0473 -0.43286,-0.20355 -0.43286,-0.62935 0,-0.48754 0.41134,-0.80045 1.01529,-0.80045 0.55281,0 0.85126,0.27305 1.03329,0.52034 l -0.393,0.29457 c -0.0875,-0.12735 -0.2547,-0.38206 -0.66604,-0.38206 -0.25823,0 -0.48366,0.11642 -0.48366,0.31292 0,0.21837 0.23989,0.26211 0.47272,0.30586 l 0.26565,0.0582 c 0.34572,0.0727 0.83326,0.21449 0.83326,0.76377 0,0.58949 -0.54575,0.82585 -1.0915,0.82585 -0.14181,0 -0.30198,-0.0145 -0.45826,-0.0582 -0.17109,-0.0508 -0.47307,-0.17462 -0.66604,-0.48718 z"
       style="fill:#154b8d;fill-opacity:1;fill-rule:nonzero;stroke:none;stroke-width:0.352778" />
    <path
       id="path10"
       d="m 104.84767,102.91508 h -0.70944 v 2.13184 h -0.48013 v -2.13184 h -0.69497 v -0.43674 h 1.88454 z"
       style="fill:#154b8d;fill-opacity:1;fill-rule:nonzero;stroke:none;stroke-width:0.352778" />
    <path
       id="path11"
       d="m 105.6882,105.04686 h -0.47308 v -2.56858 h 0.47308 z"
       style="fill:#154b8d;fill-opacity:1;fill-rule:nonzero;stroke:none;stroke-width:0.352778" />
    <path
       id="path12"
       d="m 107.95466,102.91508 h -0.70944 v 2.13184 h -0.48013 v -2.13184 h -0.69497 v -0.43674 h 1.88454 z"
       style="fill:#154b8d;fill-opacity:1;fill-rule:nonzero;stroke:none;stroke-width:0.352778" />
    <path
       id="path13"
       d="m 110.39228,102.47842 v 1.6189 c -0.004,0.29104 -0.004,0.53128 -0.27658,0.76411 -0.26176,0.22931 -0.60043,0.25118 -0.77505,0.25118 -0.15628,0 -0.30903,-0.0183 -0.45473,-0.0691 -0.30551,-0.10584 -0.4692,-0.32738 -0.5274,-0.52035 -0.0328,-0.11289 -0.0328,-0.19297 -0.0363,-0.51294 v -1.53176 h 0.48013 v 1.57903 c 0,0.10901 -0.004,0.21449 0.0328,0.31292 0.0981,0.24729 0.36759,0.27622 0.52035,0.27622 0.0762,0 0.26917,-0.004 0.41098,-0.127 0.14182,-0.12735 0.14182,-0.27305 0.14182,-0.48754 v -1.55363 z"
       style="fill:#154b8d;fill-opacity:1;fill-rule:nonzero;stroke:none;stroke-width:0.352778" />
    <path
       id="path14"
       d="m 112.65154,102.91508 h -0.70944 v 2.13184 h -0.48013 v -2.13184 H 110.767 v -0.43674 h 1.88454 z"
       style="fill:#154b8d;fill-opacity:1;fill-rule:nonzero;stroke:none;stroke-width:0.352778" />
    <path
       id="path15"
       d="m 113.98388,102.85314 c -0.44027,0 -0.73484,0.35666 -0.73484,0.89147 0,0.5782 0.31997,0.92392 0.74578,0.92392 0.31997,0 0.7313,-0.23283 0.74224,-0.85125 0.0109,-0.502 -0.24765,-0.96414 -0.75318,-0.96414 m -0.004,2.25919 c -0.32385,0 -0.6223,-0.091 -0.88406,-0.39264 -0.2547,-0.29493 -0.34219,-0.62971 -0.34219,-0.95321 0,-0.78599 0.53128,-1.35361 1.23331,-1.35361 0.63676,0 1.23331,0.47308 1.22978,1.34973 -0.004,0.73484 -0.44767,1.34973 -1.23684,1.34973"
       style="fill:#154b8d;fill-opacity:1;fill-rule:nonzero;stroke:none;stroke-width:0.352778" />
    <path
       id="path16"
       d="m 117.00362,102.78043 v 1.97203 h 0.45473 c 0.22543,-0.004 0.39652,-0.007 0.56762,-0.10584 0.17074,-0.0945 0.38911,-0.32737 0.38911,-0.88018 0,-0.42227 -0.12347,-0.81527 -0.53481,-0.94227 -0.14181,-0.0437 -0.29104,-0.0437 -0.47272,-0.0437 z m -0.34925,-0.30198 h 0.80398 c 0.36371,0 0.68756,0 0.98601,0.31644 0.30904,0.33126 0.31997,0.78599 0.31997,0.96803 0,0.17815 -0.007,0.68015 -0.36018,1.01106 -0.2981,0.27305 -0.64735,0.27305 -0.86572,0.27305 h -0.88406 z"
       style="fill:#154b8d;fill-opacity:1;fill-rule:nonzero;stroke:none;stroke-width:0.352778" />
    <path
       id="path17"
       d="m 119.63749,103.87549 v 0.87312 h 1.48449 v 0.29845 h -1.8154 v -2.56857 h 1.77165 v 0.30198 h -1.44074 v 0.79304 h 1.25166 v 0.30198 z"
       style="fill:#154b8d;fill-opacity:1;fill-rule:nonzero;stroke:none;stroke-width:0.352778" />
    <path
       id="path18"
       d="m 98.033379,108.22178 -0.352778,-1.18251 -0.356658,1.18251 z m 0.127353,0.41839 H 97.19659 l -0.149225,0.50201 h -0.512939 l 0.86607,-2.56858 h 0.545747 l 0.876653,2.56858 h -0.512939 z"
       style="fill:#154b8d;fill-opacity:1;fill-rule:nonzero;stroke:none;stroke-width:0.352778" />
    <path
       id="path19"
       d="m 99.346948,108.3782 c 0.06174,0.0945 0.254706,0.38911 0.796572,0.38911 0.091,0 0.18556,-0.007 0.27658,-0.0434 0.18556,-0.0766 0.21837,-0.20743 0.21837,-0.29492 0,-0.16369 -0.11289,-0.2219 -0.19297,-0.25435 -0.0582,-0.0219 -0.0653,-0.0258 -0.2981,-0.0804 l -0.309385,-0.0653 c -0.163689,-0.0399 -0.24377,-0.0582 -0.32385,-0.091 -0.116417,-0.0473 -0.432859,-0.20355 -0.432859,-0.62935 0,-0.48754 0.410986,-0.80045 1.014944,-0.80045 0.55315,0 0.8516,0.27305 1.03328,0.52034 l -0.39299,0.29457 c -0.0871,-0.12735 -0.25471,-0.38206 -0.66569,-0.38206 -0.258235,0 -0.48366,0.11642 -0.48366,0.31292 0,0.21837 0.239889,0.26211 0.47272,0.30586 l 0.26564,0.0582 c 0.34573,0.0727 0.83326,0.21449 0.83326,0.76377 0,0.58949 -0.54574,0.82585 -1.09149,0.82585 -0.141816,0 -0.301978,-0.0145 -0.458611,-0.0582 -0.170744,-0.0508 -0.472722,-0.17462 -0.665692,-0.48754 z"
       style="fill:#154b8d;fill-opacity:1;fill-rule:nonzero;stroke:none;stroke-width:0.352778" />
    <path
       id="path20"
       d="m 103.25435,107.01031 h -0.70944 v 2.13184 h -0.48013 v -2.13184 h -0.69497 v -0.43674 h 1.88454 z"
       style="fill:#154b8d;fill-opacity:1;fill-rule:nonzero;stroke:none;stroke-width:0.352778" />
    <path
       id="path21"
       d="m 104.1019,106.9884 v 0.80398 h 0.16722 c 0.16404,0 0.22577,-0.004 0.31679,-0.007 0.10548,-0.004 0.4512,-0.0215 0.4512,-0.39652 0,-0.0543 -0.004,-0.24377 -0.2039,-0.34537 -0.10195,-0.0512 -0.22543,-0.0547 -0.50941,-0.0547 z m -0.4766,-0.41487 h 0.81844 c 0.3422,0.004 0.5715,0.004 0.79693,0.18556 0.16016,0.13124 0.28363,0.33479 0.28363,0.63324 0,0.49107 -0.35983,0.66216 -0.50553,0.70591 l 0.57115,1.04387 h -0.54928 l -0.50941,-0.95321 h -0.42933 v 0.95321 h -0.4766 z"
       style="fill:#154b8d;fill-opacity:1;fill-rule:nonzero;stroke:none;stroke-width:0.352778" />
    <path
       id="path22"
       d="m 107.08516,106.94839 c -0.44027,0 -0.73484,0.35666 -0.73484,0.89147 0,0.5782 0.31997,0.92392 0.74578,0.92392 0.32032,0 0.7313,-0.23283 0.74224,-0.85125 0.0109,-0.502 -0.2473,-0.96414 -0.75318,-0.96414 m -0.004,2.25919 c -0.32385,0 -0.6223,-0.091 -0.88406,-0.39264 -0.2547,-0.29493 -0.34219,-0.62971 -0.34219,-0.95321 0,-0.78599 0.53128,-1.35361 1.23331,-1.35361 0.63676,0 1.23366,0.47308 1.22978,1.34973 -0.004,0.73484 -0.44732,1.34973 -1.23684,1.34973"
       style="fill:#154b8d;fill-opacity:1;fill-rule:nonzero;stroke:none;stroke-width:0.352778" />
    <path
       id="path23"
       d="m 109.25722,107.64322 h 1.07315 v 0.41134 h -1.07315 v 1.08761 h -0.4766 v -2.56857 h 1.69897 v 0.42933 h -1.22237 z"
       style="fill:#154b8d;fill-opacity:1;fill-rule:nonzero;stroke:none;stroke-width:0.352778" />
    <path
       id="path24"
       d="m 111.05451,105.88607 h 0.52035 l -0.38947,0.43639 h -0.32385 z m 0.24024,3.25614 h -0.47307 v -2.56858 h 0.47307 z"
       style="fill:#154b8d;fill-opacity:1;fill-rule:nonzero;stroke:none;stroke-width:0.352778" />
    <path
       id="path25"
       d="m 112.08039,108.3782 c 0.0621,0.0945 0.25471,0.38911 0.79657,0.38911 0.091,0 0.18592,-0.007 0.27658,-0.0434 0.18556,-0.0766 0.21837,-0.20743 0.21837,-0.29492 0,-0.16369 -0.11289,-0.2219 -0.19262,-0.25435 -0.0582,-0.0219 -0.0656,-0.0258 -0.29845,-0.0804 l -0.30938,-0.0653 c -0.16369,-0.0399 -0.24377,-0.0582 -0.32385,-0.091 -0.11642,-0.0473 -0.43286,-0.20355 -0.43286,-0.62935 0,-0.48754 0.41134,-0.80045 1.01529,-0.80045 0.55281,0 0.85126,0.27305 1.03329,0.52034 l -0.393,0.29457 c -0.0875,-0.12735 -0.2547,-0.38206 -0.66604,-0.38206 -0.25823,0 -0.48366,0.11642 -0.48366,0.31292 0,0.21837 0.23989,0.26211 0.47272,0.30586 l 0.26565,0.0582 c 0.34572,0.0727 0.83326,0.21449 0.83326,0.76377 0,0.58949 -0.54575,0.82585 -1.0915,0.82585 -0.14181,0 -0.30198,-0.0145 -0.45826,-0.0582 -0.17109,-0.0508 -0.47307,-0.17462 -0.66604,-0.48754 z"
       style="fill:#154b8d;fill-opacity:1;fill-rule:nonzero;stroke:none;stroke-width:0.352778" />
    <path
       id="path26"
       d="m 114.93627,109.14226 h -0.47308 v -2.56858 h 0.47308 z"
       style="fill:#154b8d;fill-opacity:1;fill-rule:nonzero;stroke:none;stroke-width:0.352778" />
    <path
       id="path27"
       d="m 117.67947,108.42544 c -0.0328,0.0836 -0.0945,0.23283 -0.2219,0.38559 -0.18203,0.21131 -0.46954,0.39652 -0.88759,0.39652 -0.6805,0 -1.20085,-0.49848 -1.20085,-1.35678 0,-0.87313 0.56409,-1.34268 1.21885,-1.34268 0.80045,0 0.98954,0.61489 1.04775,0.7934 l -0.48013,0.127 c -0.007,-0.0473 -0.0289,-0.15628 -0.0946,-0.25435 -0.0547,-0.0801 -0.1965,-0.22578 -0.46214,-0.22578 -0.41839,0 -0.70943,0.34572 -0.70943,0.895 0,0.58561 0.30938,0.90946 0.71331,0.90946 0.23989,0 0.38524,-0.11642 0.49107,-0.25083 0.0836,-0.11289 0.11642,-0.20743 0.13441,-0.26564 z"
       style="fill:#154b8d;fill-opacity:1;fill-rule:nonzero;stroke:none;stroke-width:0.352778" />
    <path
       id="path28"
       d="m 119.19003,108.22178 -0.35278,-1.18251 -0.35666,1.18251 z m 0.12735,0.41839 h -0.96414 l -0.14922,0.50201 h -0.51294 l 0.86607,-2.56858 h 0.54574 l 0.87666,2.56858 h -0.51294 z"
       style="fill:#154b8d;fill-opacity:1;fill-rule:nonzero;stroke:none;stroke-width:0.352778" />
    <path
       id="path29"
       d="m 121.63488,106.87565 v 1.97203 h 0.45473 c 0.22543,-0.004 0.39652,-0.007 0.56762,-0.10584 0.1711,-0.0945 0.38911,-0.32737 0.38911,-0.88018 0,-0.42227 -0.12347,-0.81527 -0.53445,-0.94227 -0.14217,-0.0437 -0.29105,-0.0437 -0.47308,-0.0437 z m -0.34925,-0.30198 h 0.80398 c 0.36407,0 0.68756,0 0.98601,0.31644 0.30939,0.33126 0.31997,0.78599 0.31997,0.96803 0,0.17815 -0.007,0.68015 -0.35983,1.01106 -0.29845,0.27305 -0.6477,0.27305 -0.86607,0.27305 h -0.88406 z"
       style="fill:#154b8d;fill-opacity:1;fill-rule:nonzero;stroke:none;stroke-width:0.352778" />
    <path
       id="path30"
       d="m 124.2689,107.97071 v 0.87312 h 1.48449 v 0.29845 h -1.8154 v -2.56857 h 1.77165 v 0.30198 h -1.44074 v 0.79304 h 1.2513 v 0.30198 z"
       style="fill:#154b8d;fill-opacity:1;fill-rule:nonzero;stroke:none;stroke-width:0.352778" />
    <path
       id="path31"
       d="m 98.033379,112.317 -0.352778,-1.18251 -0.356658,1.18251 z m 0.127353,0.41839 H 97.19659 l -0.149225,0.50201 h -0.512939 l 0.86607,-2.56858 h 0.545747 l 0.876653,2.56858 h -0.512939 z"
       style="fill:#154b8d;fill-opacity:1;fill-rule:nonzero;stroke:none;stroke-width:0.352778" />
    <path
       id="path32"
       d="m 100.66757,110.66886 h 0.47307 v 2.56857 h -0.41839 l -1.124302,-1.80093 0.02893,1.80093 h -0.469195 v -2.56857 h 0.432858 l 1.135239,1.81539 z"
       style="fill:#154b8d;fill-opacity:1;fill-rule:nonzero;stroke:none;stroke-width:0.352778" />
    <path
       id="path33"
       d="m 102.32651,111.10553 v 1.69898 h 0.20355 c 0.36407,0 0.49142,-0.0183 0.60043,-0.0582 0.18556,-0.0727 0.38206,-0.23283 0.38206,-0.76765 0,-0.24024 -0.0363,-0.63288 -0.393,-0.80398 -0.13828,-0.0617 -0.21448,-0.0656 -0.53833,-0.0691 z m -0.48013,-0.43674 h 0.9204 c 0.22189,0.004 0.49106,0.007 0.76023,0.20003 0.42933,0.30233 0.49495,0.81879 0.49495,1.10631 0,0.43991 -0.14923,0.88759 -0.52776,1.10596 -0.2547,0.14922 -0.52387,0.15275 -0.82585,0.15628 h -0.82197 z"
       style="fill:#154b8d;fill-opacity:1;fill-rule:nonzero;stroke:none;stroke-width:0.352778" />
    <path
       id="path34"
       d="m 105.61613,112.317 -0.35278,-1.18251 -0.35666,1.18251 z m 0.12735,0.41839 h -0.96414 l -0.14922,0.50201 h -0.51294 l 0.86607,-2.56858 h 0.54574 l 0.87666,2.56858 h -0.51294 z"
       style="fill:#154b8d;fill-opacity:1;fill-rule:nonzero;stroke:none;stroke-width:0.352778" />
    <path
       id="path35"
       d="m 107.22426,112.8009 h 1.01847 v 0.43639 h -1.50248 v -2.57211 h 0.48401 z"
       style="fill:#154b8d;fill-opacity:1;fill-rule:nonzero;stroke:none;stroke-width:0.352778" />
    <path
       id="path36"
       d="m 110.62674,110.66886 v 1.6189 c -0.004,0.29104 -0.004,0.53128 -0.27622,0.76411 -0.26212,0.22931 -0.60043,0.25118 -0.77506,0.25118 -0.15663,0 -0.30938,-0.0183 -0.45508,-0.0691 -0.30551,-0.10584 -0.4692,-0.32738 -0.5274,-0.52035 -0.0328,-0.11289 -0.0328,-0.19297 -0.0363,-0.51294 v -1.53176 h 0.48013 v 1.57903 c 0,0.10901 -0.004,0.21449 0.0328,0.31292 0.0984,0.24729 0.36759,0.27622 0.52035,0.27622 0.0766,0 0.26917,-0.004 0.41098,-0.127 0.14182,-0.12735 0.14182,-0.27305 0.14182,-0.48754 v -1.55363 z"
       style="fill:#154b8d;fill-opacity:1;fill-rule:nonzero;stroke:none;stroke-width:0.352778" />
    <path
       id="path37"
       d="m 113.36267,112.52066 c -0.0328,0.0836 -0.0945,0.23283 -0.2219,0.38559 -0.18203,0.21131 -0.46954,0.39652 -0.88759,0.39652 -0.6805,0 -1.20085,-0.49812 -1.20085,-1.35678 0,-0.87313 0.56409,-1.34268 1.21885,-1.34268 0.80045,0 0.98954,0.61489 1.04775,0.7934 l -0.48013,0.127 c -0.007,-0.0473 -0.0289,-0.15628 -0.0946,-0.25435 -0.0547,-0.0801 -0.1965,-0.22578 -0.46214,-0.22578 -0.41839,0 -0.70943,0.34572 -0.70943,0.895 0,0.58561 0.30938,0.90946 0.71331,0.90946 0.23989,0 0.38524,-0.11642 0.49107,-0.25083 0.0836,-0.11289 0.11642,-0.20743 0.13441,-0.26564 z"
       style="fill:#154b8d;fill-opacity:1;fill-rule:nonzero;stroke:none;stroke-width:0.352778" />
    <path
       id="path38"
       d="m 113.94479,109.98129 h 0.52035 l -0.38947,0.43639 h -0.32385 z m 0.24024,3.25614 h -0.47307 v -2.56858 h 0.47307 z"
       style="fill:#154b8d;fill-opacity:1;fill-rule:nonzero;stroke:none;stroke-width:0.352778" />
    <path
       id="path39"
       d="m 116.00751,112.317 -0.35278,-1.18251 -0.35666,1.18251 z m 0.12735,0.41839 h -0.96414 l -0.14922,0.50201 h -0.51294 l 0.86607,-2.56858 h 0.54574 l 0.87666,2.56858 h -0.51294 z"
       style="fill:#154b8d;fill-opacity:1;fill-rule:nonzero;stroke:none;stroke-width:0.352778" />
    <path
       id="path40"
       d="m 181.28438,111.75337 c 0.006,0.006 0.16369,0 0.70591,-0.27658 0.56621,-0.2928 0.48965,0.82797 0.48965,0.82797 0.59867,0.25647 1.56034,0.17568 1.6383,0.11571 0.0748,-0.0638 -0.31538,-0.28046 -0.44097,-0.51541 -0.10936,-0.20778 -0.0921,-0.64452 0,-0.74259 0.34008,-0.3616 1.2065,-0.11007 1.2065,-0.11007 0.0282,0.0836 -0.0243,0.60219 -0.0243,0.60219 -0.0547,-0.0293 -0.64699,-0.0624 -0.70132,0.0533 0,0 0.28434,0.10442 0.40216,0.36724 0.17251,0.38629 -0.12241,0.96238 -0.12241,0.96238 -1.15641,0.65088 -2.34668,-0.0603 -2.3936,-0.0991 -0.0582,-0.0568 -0.14322,-0.3623 -0.14322,-0.3623 -1.39806,0.57326 -2.8381,-0.0667 -2.8381,-0.0667 0.0148,0.27305 -0.11607,0.43145 -0.11607,0.43145 -1.46896,0.69532 -2.43381,0.0847 -2.43381,0.0847 -0.55421,-0.88548 0.2226,-1.38571 0.2226,-1.38571 -0.11183,-0.0508 -0.71014,-0.0251 -0.71014,-0.0251 v -0.57362 c 1.31763,-0.29951 1.2513,0.21696 1.26436,0.66675 0.0148,0.44768 -0.44909,0.70662 -0.44909,0.70662 1.01812,0.19967 1.62243,-0.0974 1.62243,-0.0974 0,0 -0.007,-0.12242 0.008,-0.63888 0.0134,-0.51576 1.08797,0.0395 1.08797,0.0395 0.23177,-0.16016 0.24447,-1.16699 0.24447,-1.16699 -0.54151,-0.59619 0.0268,-0.91052 0.0268,-0.91052 0.0272,-0.81633 -0.67909,-0.8569 -0.67909,-0.8569 0.15063,0.76165 -0.0409,0.8569 -0.15099,1.04846 -0.1076,0.18874 -1.07351,0.63817 -1.01636,0.75882 0.0519,0.12595 0.54293,-0.26881 0.54293,-0.26881 0.16157,0.16016 0.14817,0.44873 0.14817,0.44873 -0.1905,0.35348 -1.10138,0.40675 -1.04705,-0.23213 0.0596,-0.70167 0.58491,-0.59901 1.03364,-0.96308 0.44873,-0.36759 -0.12171,-0.79199 -0.12171,-0.79199 -0.10795,0.0152 -0.2861,0.12418 -0.2861,0.12418 0.0145,0.13406 0.19085,0.36407 0.19085,0.36407 -0.0804,0.0949 -0.50376,0.2734 -0.50376,0.2734 -0.0681,-0.0258 -0.17675,-0.23248 -0.17675,-0.23248 l -0.1217,0.13653 c 0.27375,1.02093 -0.66605,1.03293 -0.66605,1.03293 l 0.0272,-0.24095 c -0.16298,0.0808 -0.57044,0.0416 -0.57044,0.0416 -0.0275,-0.39829 0.34008,-0.70732 0.34008,-0.70732 -0.0406,-0.0166 -0.10795,-0.12629 -0.10795,-0.12629 0.40605,-0.36513 0.80257,-0.13653 0.80257,-0.13653 l 0.0794,-0.15875 c -0.23213,-0.43639 0.16333,-0.23354 0.16333,-0.23354 0.0279,-0.36795 0.2854,-0.47237 0.2854,-0.47237 -0.012,-0.0723 -0.16334,-0.13617 -0.16334,-0.13617 -0.63923,0.52811 -0.9779,-0.30162 -0.9779,-0.30162 -0.13546,0.0134 -0.34184,-0.0949 -0.34184,-0.0949 0.042,-0.0822 0.19156,-0.2159 0.19156,-0.2159 -0.055,-0.0314 -0.14958,-0.36654 -0.14958,-0.36654 0.0688,-0.0413 0.40711,-0.0543 0.40711,-0.0543 0,-0.0829 0.10936,-0.23459 0.10936,-0.23459 0.0829,0.0579 0.28716,0.33055 0.28716,0.33055 0.0801,-0.0152 0.22789,0.0519 0.22789,0.0519 0,-0.067 0.0949,-0.18803 0.0949,-0.18803 0.0162,-0.0427 -0.21343,-0.16475 -0.21343,-0.16475 l 0.0533,-0.0699 c 0.0526,0 0.3115,0.0833 0.3115,0.0833 0.69427,-0.43357 0.96379,0.0402 0.96379,0.0402 0.0829,0.61454 0.24553,0.44803 0.24553,0.44803 0.0282,-0.0554 -0.0265,-0.3369 -0.0265,-0.3369 h 0.19085 c 0.0265,0.16051 0.33867,0.50341 0.33867,0.50341 -0.0138,-0.65475 0.37994,-0.84631 0.37994,-0.84631 -0.0399,-1.01953 -0.88301,-1.31692 -0.88301,-1.31692 -0.055,0.2032 -0.13828,0.76165 -0.0684,0.7881 0.0684,0.0268 0.28857,-0.31115 0.28857,-0.31115 0.25611,0.15981 0.30938,0.48613 0.30938,0.48613 -0.883,0.5454 -1.16734,-0.29986 -1.16734,-0.29986 -0.0564,0.0159 -0.55668,0.0984 -0.55668,0.0984 -0.0833,-0.0984 0.0935,-0.57009 0.0935,-0.57009 -0.32809,-0.0148 -0.51577,0.28539 -0.51577,0.28539 0.13759,0.73202 -0.8837,0.88195 -0.8837,0.88195 0.0402,-0.0543 -0.12383,-0.20602 -0.12383,-0.20602 -0.10654,0.0423 -0.59619,0.0825 -0.59619,0.0825 -0.0145,-0.35172 0.31291,-0.58315 0.31291,-0.58315 -0.0416,-0.0399 -0.12347,-0.31115 -0.12347,-0.31115 0.70838,-0.35489 1.15535,-0.0861 1.15535,-0.0861 0.43638,-0.4191 1.27846,-0.56903 1.27846,-0.56903 0.0113,-0.0977 0.0667,-0.20179 0.0667,-0.20179 0.0406,-0.18874 -0.70626,-0.18874 -0.70626,-0.18874 0.0275,-0.0572 -0.0946,-0.35666 -0.0946,-0.35666 -0.0543,0 -0.16333,0.0688 -0.16333,0.0688 -0.27059,0.39229 -0.31433,0.054 -0.31433,0.054 -0.0667,-0.0123 -0.25647,0.13758 -0.25647,0.13758 -0.14922,0.36689 -0.82762,0.36689 -0.82762,0.36689 0.0674,-0.0818 0,-0.1912 0,-0.1912 -0.15134,-0.0155 -0.50412,-0.29987 -0.50412,-0.29987 0.10901,-0.0942 0.48966,-0.28821 0.48966,-0.28821 -0.10901,-0.0945 -0.0804,-0.50095 -0.0804,-0.50095 0.0656,0.0716 0.47554,0.15275 0.47554,0.15275 0.37783,0.0117 0.48895,0.42051 0.48895,0.42051 0.13582,0.0258 0.5842,-0.22965 0.5842,-0.22965 -0.0963,-0.40852 -0.54539,-0.47908 -0.54539,-0.47908 -0.94862,0.43886 -1.09855,-0.40604 -1.09855,-0.40604 -0.0695,-0.031 -0.28858,-0.12524 -0.28858,-0.12524 0.0572,-0.0797 0.31292,-0.20002 0.31292,-0.20002 -0.067,-0.042 -0.0938,-0.36972 -0.0938,-0.36972 0.0938,-0.0247 0.46143,0.0293 0.46143,0.0293 -0.0247,-0.0829 0.0956,-0.27305 0.0956,-0.27305 l 0.19085,0.40816 c 0,0 0.57256,-0.1644 0.48754,0.62583 0,0 0.0688,0.0815 0.23389,0.14816 0,0 0.0949,-0.29668 0.0261,-0.42121 -0.0695,-0.12136 -0.23036,-0.42016 -0.27093,-0.43392 0,0 0.24483,0.0656 0.29704,0.10866 0,0 0.16298,-0.16263 0.16298,-0.23178 0,0 0.38171,0.40958 0.35313,0.63959 -0.0257,0.23107 -0.31397,0.42016 -0.37958,0.44697 l 0.0952,0.084 c 0,0 0.97931,-0.40922 1.37301,0.39264 0,0 0.0547,-0.34149 0.0265,-0.42228 0,0 -0.53234,-0.061 -0.2286,-0.72143 0.13335,-0.29633 -0.0296,-0.41945 -0.0296,-0.41945 0,0 0.43427,0.0691 0.51823,0.39546 0,0 0.22931,-0.1912 0.17392,-0.39546 0,0 0.41063,0.17674 0.29986,0.77611 -0.0663,0.36477 -0.37923,0.42016 -0.37923,0.42016 0,0 -0.21873,0.6918 0.14852,1.26436 0,0 0.34007,-0.29881 0.37994,-0.42087 0,0 -0.26988,-0.40816 -0.0674,-0.70696 0.20355,-0.29916 0.38135,-0.21732 0.46249,-0.28575 0,0 0.25823,-0.31221 0.27164,-0.39723 0,0 0.0956,0.27411 0.0536,0.34325 0,0 0.35384,-0.0949 0.42122,-0.0949 0,0 -0.0268,0.33973 -0.0674,0.37818 0,0 0.18979,0.17674 0.33796,0.12524 0,0 -0.18698,0.23001 -0.29739,0.25717 0,0 -0.16334,0.76165 -0.95286,0.58455 0,0 -0.29598,0.31327 -0.32561,0.40887 0,0 0.32561,0.43533 0.32561,0.54152 0,0 0.42192,-0.13653 0.53234,-0.054 0,0 0.71791,-0.28645 0.74613,-1.55998 l 0.1912,-0.0423 c 0,0 -0.0826,-0.39653 0,-0.63924 0,0 -0.71966,-0.77505 -0.24553,-1.01847 0,0 0.12136,0.23037 0.27093,0.29704 0,0 0.24624,-0.0667 0.29951,-0.23107 0,0 0.29951,0.40852 0.19121,0.75812 0,0 -0.32526,0.46673 -0.25824,0.70662 0,0 0.31257,-0.37677 0.88371,-0.28081 0,0 -0.0688,-0.46461 0.21943,-0.82939 0,0 0.0392,0.24554 0.18662,0.36478 0.1524,0.12312 0.12418,0.31326 0.0822,0.36865 l 0.1778,-0.0674 c 0,0 -0.21943,-0.64029 0.31291,-0.78952 0,0 0.12206,-0.34113 0.20285,-0.43321 l 0.2039,0.23107 c 0,0 0.23107,-0.21802 0.34043,-0.21802 0,0 0.12136,0.35349 0.0938,0.42016 0,0 0.24554,0.0275 0.31468,-0.0127 0,0 -0.25858,0.43392 -0.31468,0.46285 0,0 0.14993,0.73095 -0.92604,0.54363 l -0.33549,0.29704 c 0,0 0.1076,0.16404 0.1076,0.21519 0,0 0.62406,-0.21519 0.73307,-0.32491 0,0 0,0.3803 -0.0557,0.49177 0,0 0.38276,0.10725 0.50412,0.0653 0,0 -0.14993,0.4505 -0.50412,0.50553 0,0 0.12524,0.19085 -0.14817,0.15064 0,0 -0.24482,0.0811 -0.30127,0.1598 0,0 -0.15945,-0.23107 -0.24447,-0.24482 0,0 -0.36372,0.13617 -0.5013,0.0705 0,0 0.0713,-0.21837 0.0145,-0.27058 l -0.0529,-0.0572 0.0529,0.0572 c 0,0 -0.50341,0.0222 -0.47589,0.24236 0,0 0.0684,0.39335 0.0684,0.44838 0,0 0.37888,0.0677 0.44661,0.12171 l 0.0176,0.51611 -0.42404,-0.13723 c 0,0 -0.13617,0.70838 -0.59796,0.62653 -0.46319,-0.0783 -0.55844,-0.29845 -0.17639,-0.93662 0,0 -0.77434,0.0783 -0.76376,1.14018 0,0 0.0437,0.0949 0.19473,0.042 0,0 -0.0289,0.27023 -0.0695,0.36583 0,0 0.41945,-0.2854 0.74753,-0.16228 0,0 0.22966,-0.32702 0.65158,-0.17639 0,0 0.21837,0 0.17533,-0.54575 l 0.20567,-0.0134 0.0141,0.30268 c 0,0 0.33938,-0.16651 0.38171,-0.24588 0,0 -0.17815,-0.49107 0.31115,-0.66816 0,0 0.16475,-0.25506 0.24518,-0.28434 0,0 0.10689,0.36618 0.0935,0.44908 0,0 0.40851,-0.0695 0.50447,-0.0392 0,0 -0.0557,0.32209 -0.12277,0.40746 0,0 0.20356,0.0917 0.27199,0.18944 0,0 -0.73518,0.40711 -1.08832,0.25718 0,0 -0.46178,0.13617 -0.54468,0.24412 0,0 0.20567,0.12312 0.53057,-0.0804 v 0.20355 h 0.15276 c 0,0 0.78528,-0.54469 1.09819,0.16228 0,0 0.2032,0.0956 0.32668,0.0395 0,0 -0.055,0.24694 -0.16369,0.27164 0,0 0.16369,0.26035 0.16369,0.39582 0,0 -0.23072,0.0681 -0.36725,0.0134 0,0 0,0.28822 -0.0279,0.36795 0,0 -0.27093,-0.20461 -0.31256,-0.31327 0,0 -0.73554,0.10866 -0.75988,-0.62336 l -0.17709,-0.0561 c 0,0 -0.21873,0.16298 -0.31221,0.19085 0,0 0.24306,0.13512 0.29739,0.20144 0,0 -0.11924,0.31433 -0.21449,0.32667 0,0 -0.8449,-0.4325 -1.07491,-0.13688 0,0 0.42086,0.24765 0.51576,0.35384 0,0 0.883,-0.20144 0.71931,0.54434 l 0.0543,0.0822 c 0,0 0.43709,0.0416 0.58667,0.81704 0,0 -0.52987,0.13688 -0.6671,-0.62442 0,0 -0.055,0.0236 -0.0956,0.0656 0,0 0.0568,0.13617 0.0286,0.18803 0,0 0.61136,0.60219 -0.20461,1.25271 0,0 -0.30163,-0.33831 -0.30163,-0.49142 0,0 -0.36477,-0.11712 -0.54116,0.0822 0,0 -0.0406,-0.67557 0.78952,-0.74754 l 0.0134,-0.14781 c 0,0 -0.28575,0.17674 -0.40816,0.2032 0,0 -0.27376,0 -0.50306,-0.32597 0,0 0.81527,-0.27164 0.73519,-0.36512 -0.0857,-0.096 -0.96485,0.46037 -1.60479,0.13511 0,0 -0.0695,0.12136 -0.16333,0.13441 0,0 -0.28575,0.51576 -0.0949,1.01988 0,0 0.63182,0.44168 0.15557,0.90981 0,0 0.0748,0.63042 0.1838,0.68651 m -3.51049,-7.91245 c 0.11465,0.4071 0.51893,0.0134 0.6791,0.14181 0.75776,0.64488 -0.23354,1.39912 0.0494,2.21122 0.0646,0.1658 0.16934,0.30162 0.33585,0.38064 0.18203,0.06 0.4318,0.005 0.5842,-0.096 0.0265,-0.0917 -0.0706,-0.16934 -0.13617,-0.26212 -0.0624,0.0543 -0.12736,0.139 -0.17639,0.18874 -0.0656,0.13123 -0.23142,0.10477 -0.25894,-0.0254 -0.10195,-0.80151 0.55915,-1.80834 -0.17427,-2.48779 -0.26282,-0.19967 -0.63394,-0.19544 -0.90276,-0.0512 m 4.5339,-0.0522 c -1.33632,0.5916 0.13864,1.79175 -0.41628,2.78659 0.12383,0.0229 0.27234,-0.0402 0.34008,-0.15099 0.27058,-0.63041 0.0321,-1.32433 -0.11465,-1.9297 -0.054,-0.21096 -0.0332,-0.34007 0.12876,-0.49706 0.16439,-0.1404 0.39052,-0.0187 0.46884,0.0871 0.0392,-0.0293 0.17851,-0.15029 0.17851,-0.20461 -0.14852,-0.11113 -0.38136,-0.13053 -0.58526,-0.0914 m -0.0346,0.32067 c -0.0766,0.12383 -0.0783,0.29069 -0.004,0.42087 0.11818,-0.0921 0.29421,-0.266 0.37006,-0.37113 -0.0635,-0.1143 -0.25153,-0.20602 -0.36618,-0.0497 m -4.10351,-0.0159 c 0.0642,0.1397 0.27305,0.15592 0.42862,0.19473 l -0.0572,-0.0988 c -0.10689,-0.1531 -0.20884,-0.19156 -0.37147,-0.096 m 4.99639,0.0353 c -0.0903,0.0758 -0.21908,0.22719 -0.22543,0.2914 0.006,0.10301 0.085,0.41592 0.0339,0.6096 0.0914,0.0381 0.20955,-0.0191 0.28751,-0.0406 0.0942,-0.2787 0.12877,-0.66393 -0.0959,-0.86043 m -0.3175,0.37395 -0.079,0.11747 c 0.0501,0.0155 0.0628,0.0194 0.11148,-0.002 z m -1.13383,0.54469 -0.0222,-0.17039 -0.055,0.17039 z m 0.81633,0.61277 -0.0282,0.14394 c -0.0134,0.248 0.23848,0.21448 0.32879,0.2667 v -0.2667 c -0.0797,-0.12489 -0.18415,-0.10654 -0.30056,-0.14394 m -0.92287,0.66993 c 0.0293,0.0557 0.0293,0.18979 0.13688,0.16333 0.16157,-0.1337 0.16157,-0.37535 0.13617,-0.56585 -0.13617,0.0804 -0.25753,0.25541 -0.27305,0.40252 m -3.37291,0.73166 c -0.1651,0.0769 -0.44803,0.17886 -0.44803,0.38382 0.0907,0.15522 0.21802,-0.01 0.30692,-0.066 0.20532,-0.1912 0.43709,-0.0226 0.65476,0.0286 0.0279,-0.09 -0.0505,-0.18133 -0.10125,-0.25788 -0.10372,-0.11466 -0.25894,-0.0885 -0.4124,-0.0885 m 4.85458,0.14111 c -0.387,0.17674 -0.66852,-0.28222 -1.00295,-0.0776 0.30833,0.1397 0.6029,0.4258 0.98848,0.28293 0.0907,-0.0512 0.23248,-0.11607 0.21943,-0.25788 h -0.0663 z m -3.18418,0 c -0.0656,0.0378 -0.091,0.10019 -0.0776,0.17674 0.0279,0.0561 0.0642,0.17145 0.11466,0.1337 0.025,-0.11712 0.025,-0.23495 -0.037,-0.31044 m 1.55117,0.11536 c 0.27164,0.0388 0.43497,0.28257 0.48789,0.52564 0.0649,-0.0395 0.15663,-0.0251 0.20743,-0.10125 0.0254,-0.15381 -0.0402,-0.26811 -0.13052,-0.37253 -0.14006,-0.11501 -0.42334,-0.19368 -0.5648,-0.0519 m -0.21872,0.16721 c -0.0769,0.0656 -0.2159,0.10337 -0.1778,0.22966 0.15275,-0.0381 0.32032,-0.10512 0.41063,-0.22966 -0.066,-0.0293 -0.16475,-0.0109 -0.23283,0 m -3.23286,0.10337 c -0.0515,0.049 -0.0275,0.15381 0,0.20214 -0.11677,0.23248 0.0773,0.41169 0.23001,0.52529 0.23107,0.0554 0.4632,0.0554 0.62971,-0.1009 -0.0402,-0.10054 -0.0882,-0.21555 -0.19332,-0.28187 -0.20532,0.25788 -0.43639,-0.0635 -0.6163,-0.14252 0.0272,-0.0102 0.0388,-0.0653 0.0787,-0.0374 0.0617,-0.0279 0.19333,-0.0663 0.17851,-0.16475 -0.10301,-0.10337 -0.20461,-0.10337 -0.30727,0 m 4.43971,-0.0378 c -0.0639,0.0201 -0.1778,0.01 -0.15275,0.11501 0.21942,0.0765 0.46143,0.12488 0.66886,0.2293 0.0889,0.0381 0.26741,0.11536 0.26741,-0.066 -0.22931,-0.16333 -0.49883,-0.25823 -0.78352,-0.27834 m -2.68217,0.0378 c -0.0402,0.13688 -0.0113,0.30656 0.0268,0.43462 0.24553,0.52352 0.79587,0.61701 1.23261,0.82091 0.0265,-0.0243 0.0265,-0.0638 0.0381,-0.10301 -0.15381,-0.64135 -0.92534,-0.75635 -1.29752,-1.15252 m -1.42558,0.24059 c 0.0515,0.0406 0.0921,0.10407 0.15487,0.0787 0.0268,-0.0381 0.0776,-0.0512 0.0646,-0.0893 -0.0254,-0.13159 -0.19226,-0.11465 -0.21943,0.0106 m 2.81305,0.56339 c -0.0515,0.10689 0.078,0.115 0.14041,0.14358 0.27093,0.0787 0.64417,0.066 0.84878,-0.10548 -0.26987,-0.17639 -0.7179,-0.19932 -0.98919,-0.0381 m 1.61925,0.0561 c -0.5154,0.11501 -1.04104,0.42157 -1.58079,0.22966 -0.0385,0.0903 0.0138,0.18062 0.0787,0.23072 0.56444,0.23036 1.11372,-0.0893 1.65488,-0.20744 0.0639,0.0155 0.1016,0.0787 0.1016,0.14252 -0.14076,0.25859 -0.44803,0.32209 -0.70309,0.40958 -0.0148,0.055 0.0356,0.066 0.0603,0.10619 0.20708,0.1524 0.39863,-0.0893 0.57996,-0.19368 0.16546,-0.1524 0.33373,-0.32209 0.28152,-0.54257 -0.0907,-0.17498 -0.29563,-0.16404 -0.47308,-0.17498 m -4.76426,0.15346 c -0.12735,0.13899 -0.20602,0.33267 -0.15487,0.53728 0.0522,0.0751 0.066,0.22049 0.16616,0.23036 0.44979,-0.0787 0.0155,-0.42227 0.0776,-0.66816 0.0138,-0.0868 0.0907,-0.19403 0.19297,-0.21449 -0.11571,0.0123 -0.21696,0.0381 -0.28187,0.11501 m 0.79481,0.13899 c -0.0511,0.10301 0.0889,0.23213 0.12947,0.3489 0.16651,0.63923 -0.69427,0.74542 -1.02694,1.07844 -0.12876,0.13864 -0.20496,0.30727 -0.18062,0.49812 0.0519,0.13018 0.19438,0.24589 0.33338,0.2593 0.17991,-0.0289 0.37394,-0.0677 0.50129,-0.22049 0.0385,-0.0773 0,-0.19297 -0.0758,-0.21696 -0.15346,0.11677 -0.29599,0.24554 -0.50307,0.21696 -0.0614,-0.009 -0.13899,-0.061 -0.12735,-0.13899 0.21978,-0.41205 0.73272,-0.46285 1.05198,-0.80963 0.15452,-0.19509 0.21837,-0.42651 0.16793,-0.68192 -0.0635,-0.11395 -0.0755,-0.35772 -0.27023,-0.33373 m 1.04704,1.07598 -0.0557,0.0593 0.0557,0.0438 z m -0.12453,0.1979 v 0.16581 c 0.16969,0.46355 0.72214,0.31926 1.10596,0.43709 0.10513,0.0392 0.21273,0.17886 0.29457,0.25541 0.0229,-0.91475 -0.97402,-0.4893 -1.40053,-0.85831 m -3.5694,1.11549 c -0.004,0.12735 -0.0169,0.28716 0.006,0.37535 0.34572,-0.0381 0.83256,0.0145 1.01671,0.1711 l -0.0303,-0.381 c -0.19297,-0.32244 -0.6604,-0.21343 -0.99201,-0.16545 m 7.78616,0.0272 c -0.24307,0.037 -0.20462,0.41628 -0.17639,0.55986 0.28716,-0.17992 0.6738,-0.26564 0.98213,-0.20073 0.0159,10e-4 0.0187,-0.24024 0.0187,-0.35454 0,0 -0.45297,-0.13688 -0.82444,-0.005 m -5.26768,0.4572 c 0.002,0.0808 0.21978,0.2152 0.31503,0.39017 0.0945,0.17463 0.0804,0.33408 0.0804,0.33796 0.76976,0.3609 2.04153,0.46214 2.82399,0.0663 0.01,-0.33867 0.0991,-0.57715 0.36301,-0.69074 0.0381,-0.0409 -0.0243,-0.12347 -0.0885,-0.12347 -0.54081,0.21554 -1.05375,0.48471 -1.6958,0.47095 -0.69815,0.0603 -1.19839,-0.43074 -1.79811,-0.4512 m -1.80517,0.0593 c -0.14852,0.17533 -0.39158,0.30339 -0.41522,0.60184 -0.005,0.078 0.28787,0.0804 0.29246,0.078 0.17639,-0.13829 0.34254,-0.19861 0.41486,-0.50447 -0.0148,-0.091 -0.19896,-0.1718 -0.2921,-0.17533 m 1.74343,0.14252 c 0,0 0,0.45755 -0.005,0.45755 0.10231,-0.0363 0.27341,-0.0755 0.28787,-0.13194 0.0187,-0.0762 -0.1651,-0.2734 -0.28293,-0.32561 m 3.47698,0.36089 c 0.0145,0.0296 0.12912,0.0695 0.21907,0.0801 0.0893,-0.0106 0.0152,-0.3369 0.0275,-0.40463 -0.0109,0.002 -0.24659,0.0451 -0.24659,0.32455 m -5.62681,0.27623 c 0.0109,0.1852 0.048,0.37041 0.20215,0.502 0.63888,0.28575 1.47531,0.17992 2.07927,-0.0653 0.22331,-0.0857 0.18062,-0.23707 0.17568,-0.58209 -0.72143,0.33126 -1.70427,0.43357 -2.4571,0.14535 m 5.5746,-0.12877 c 0,0 -0.0603,0.34326 0.14287,0.53764 0.73061,0.39193 1.57904,0.41804 2.20063,0.0473 0.0392,-0.12665 0.10301,-0.30868 0.11218,-0.44309 -0.68262,0.31362 -1.8489,0.10477 -2.45568,-0.14182 m 2.26624,0.0279 c 0.0557,0 0.16299,-0.0437 0.16299,-0.0437 0.12347,-0.23425 -0.44027,-0.55598 -0.44027,-0.55598 0,0 -0.11959,0.0582 -0.16475,0.0769 -0.15416,0.0554 0.43568,0.52281 0.44203,0.52281"
       style="fill:#b2b1b1;fill-opacity:1;fill-rule:nonzero;stroke:none;stroke-width:0.352778" />
    <path
       id="path41"
       d="m 199.1548,111.57701 c -0.0388,0 -0.0734,-0.004 -0.10654,-0.0116 -0.0307,-0.004 -0.067,-0.008 -0.10583,-0.008 -0.0765,0 -0.25859,0.0773 -0.54822,0.23177 -0.28928,0.15487 -0.65581,0.32773 -1.0982,0.51929 -0.44379,0.19156 -0.94756,0.36125 -1.51306,0.50024 -0.5655,0.14323 -1.15605,0.21272 -1.77165,0.21272 -0.80998,0 -1.58679,-0.1016 -2.33151,-0.30903 -0.74506,-0.20461 -1.40405,-0.5214 -1.97696,-0.95391 -0.57292,-0.42862 -1.02835,-0.96555 -1.36349,-1.60902 -0.33479,-0.64205 -0.502,-1.39453 -0.502,-2.25425 0,-0.84772 0.16721,-1.59667 0.502,-2.24543 0.33514,-0.64876 0.79057,-1.19309 1.36349,-1.62983 0.57291,-0.43639 1.2319,-0.76447 1.97696,-0.98072 0.74472,-0.21979 1.52153,-0.32809 2.33151,-0.32809 0.6544,0 1.24883,0.0504 1.78153,0.15522 0.53234,0.1009 0.99942,0.21343 1.39735,0.32915 0.39723,0.11465 0.71191,0.22577 0.94333,0.32667 0.23177,0.10477 0.37253,0.15487 0.4251,0.15487 0.0635,0 0.11712,-0.0307 0.16333,-0.097 0.0448,-0.0617 0.0794,-0.11641 0.10548,-0.15487 l 0.28857,0.23248 -1.50142,2.33504 -0.19297,-0.13476 c 0,-0.0384 -0.004,-0.0773 -0.01,-0.11571 -0.007,-0.0388 -0.0169,-0.0822 -0.0286,-0.13512 -0.0268,-0.13864 -0.15487,-0.28575 -0.38629,-0.43215 -0.23142,-0.14675 -0.51717,-0.27905 -0.85655,-0.39405 -0.34078,-0.11536 -0.70097,-0.21202 -1.07914,-0.28928 -0.37924,-0.0773 -0.72955,-0.11571 -1.04987,-0.11571 -0.54046,0 -1.05763,0.0773 -1.55187,0.23142 -0.49424,0.15417 -0.92463,0.37783 -1.29117,0.67099 -0.36477,0.29739 -0.65793,0.65934 -0.87594,1.08832 -0.21837,0.43109 -0.32844,0.9211 -0.32844,1.47214 0,0.55315 0.11007,1.04528 0.32844,1.47355 0.21801,0.4318 0.51117,0.79446 0.87594,1.08761 0.36654,0.29704 0.79693,0.5207 1.29117,0.67487 0.49424,0.15451 1.01141,0.23142 1.55187,0.23142 0.41099,0 0.84138,-0.0487 1.29117,-0.14429 0.44908,-0.0952 0.86007,-0.21837 1.2326,-0.36512 0.37289,-0.15028 0.68404,-0.31644 0.93486,-0.50165 0.24942,-0.18521 0.3743,-0.36301 0.3743,-0.52917 0,-0.0924 -0.0251,-0.16968 -0.0769,-0.23142 l 0.26987,-0.15452 1.27212,2.04188 z"
       style="fill:#b01220;fill-opacity:1;fill-rule:nonzero;stroke:none;stroke-width:0.352778" />
    <path
       id="path42"
       d="m 202.34451,109.78719 0.19297,0.0963 c 0,0.11606 0.0254,0.22048 0.0776,0.30868 0.0907,0.15487 0.26635,0.3055 0.53023,0.45438 0.26352,0.14816 0.56444,0.27975 0.90699,0.39511 0.33937,0.11606 0.69673,0.20884 1.06962,0.27799 0.37218,0.072 0.70697,0.10795 1.00224,0.10795 0.21872,0 0.50095,-0.0169 0.84843,-0.0504 0.34784,-0.0307 0.68757,-0.0998 1.02094,-0.20038 0.33479,-0.10477 0.62442,-0.24412 0.86819,-0.42545 0.24341,-0.18133 0.36724,-0.41698 0.36724,-0.71473 0,-0.29315 -0.11254,-0.51329 -0.33796,-0.65263 -0.22613,-0.14323 -0.51964,-0.24695 -0.88618,-0.30904 -0.36689,-0.066 -0.78387,-0.1083 -1.25342,-0.1277 -0.46849,-0.0194 -0.94721,-0.0462 -1.43475,-0.085 -0.4893,-0.0385 -0.96802,-0.10407 -1.4351,-0.19297 -0.46919,-0.0889 -0.88794,-0.23954 -1.25271,-0.45226 -0.36654,-0.21238 -0.66216,-0.50236 -0.88759,-0.86925 -0.22437,-0.36689 -0.33584,-0.84631 -0.33584,-1.43757 0,-0.39758 0.0924,-0.7881 0.27869,-1.17439 0.18556,-0.38594 0.47131,-0.72602 0.8569,-1.02377 0.38488,-0.29351 0.87171,-0.53551 1.46367,-0.72248 0.58985,-0.18557 1.2827,-0.27799 2.07822,-0.27799 0.68192,0 1.27176,0.0504 1.77341,0.15522 0.49989,0.10089 0.9331,0.21343 1.29999,0.32879 0.36547,0.11465 0.67133,0.22613 0.9218,0.32667 0.25083,0.10477 0.45897,0.15522 0.6283,0.15522 0.17745,0 0.30586,-0.0388 0.38241,-0.11641 l 0.23142,0.15557 -1.32679,2.41159 -0.19297,-0.0769 c -0.0268,-0.18097 -0.0769,-0.32773 -0.15381,-0.44414 -0.10478,-0.15417 -0.27411,-0.3048 -0.50941,-0.45156 -0.23919,-0.1464 -0.51682,-0.27869 -0.83785,-0.3937 -0.32279,-0.11571 -0.66922,-0.2099 -1.04034,-0.28152 -0.37359,-0.0695 -0.74436,-0.10442 -1.11725,-0.10442 -0.28293,0 -0.57468,0.0229 -0.87595,0.066 -0.30162,0.0462 -0.57361,0.11183 -0.81809,0.20391 -0.24342,0.0893 -0.44591,0.20884 -0.60572,0.35524 -0.16192,0.14676 -0.24095,0.33162 -0.24095,0.54752 0,0.30868 0.11183,0.5401 0.33761,0.69461 0.22402,0.15452 0.51929,0.27023 0.88547,0.34714 0.36548,0.0773 0.78352,0.12735 1.25307,0.15451 0.46814,0.0233 0.94615,0.0575 1.43651,0.0963 0.48648,0.0388 0.9652,0.10407 1.4351,0.20038 0.46814,0.0967 0.88512,0.25083 1.25201,0.4632 0.36654,0.21202 0.6597,0.49741 0.88759,0.85619 0.22401,0.35913 0.3362,0.82973 0.3362,1.40652 0,0.66852 -0.1778,1.21356 -0.52917,1.6376 -0.3556,0.42439 -0.79587,0.756 -1.3208,0.99907 -0.52952,0.24694 -1.09714,0.40886 -1.70709,0.49388 -0.61066,0.0808 -1.17828,0.12348 -1.70639,0.12348 -0.73166,0 -1.34514,-0.0427 -1.84044,-0.12312 -0.49565,-0.0847 -0.90699,-0.18839 -1.23331,-0.30798 -0.32773,-0.12312 -0.58879,-0.23107 -0.78176,-0.32738 -0.19191,-0.096 -0.35912,-0.14534 -0.49988,-0.14534 -0.0914,0 -0.17427,0.0529 -0.25118,0.15311 l -0.27058,-0.15311 z"
       style="fill:#b01220;fill-opacity:1;fill-rule:nonzero;stroke:none;stroke-width:0.352778" />
    <path
       id="path43"
       d="m 213.90673,112.62371 c 0.33373,0 0.502,-0.11571 0.502,-0.34784 v -8.75206 c 0,-0.23178 -0.16827,-0.34714 -0.502,-0.34714 v -0.34431 h 3.19934 v 0.34431 c -0.33549,0 -0.50165,0.11536 -0.50165,0.34714 v 8.75206 c 0,0.23213 0.16616,0.34784 0.50165,0.34784 v 0.34749 h -3.19934 z"
       style="fill:#b01220;fill-opacity:1;fill-rule:nonzero;stroke:none;stroke-width:0.352778" />
    <path
       id="path44"
       d="m 230.49928,111.57701 c -0.0381,0 -0.0759,-0.004 -0.10654,-0.0116 -0.031,-0.004 -0.066,-0.008 -0.10407,-0.008 -0.0776,0 -0.26246,0.0773 -0.5521,0.23177 -0.28857,0.15487 -0.65228,0.32773 -1.09608,0.51929 -0.44379,0.19156 -0.94967,0.36125 -1.51306,0.50024 -0.56374,0.14323 -1.15641,0.21272 -1.77165,0.21272 -0.81104,0 -1.58715,-0.1016 -2.33186,-0.30903 -0.74507,-0.20461 -1.40582,-0.5214 -1.97873,-0.95391 -0.57327,-0.42862 -1.02623,-0.96555 -1.35961,-1.60902 -0.33725,-0.64205 -0.50412,-1.39453 -0.50412,-2.25425 0,-0.84772 0.16687,-1.59667 0.50412,-2.24543 0.33338,-0.64876 0.78634,-1.19309 1.35961,-1.62983 0.57291,-0.43639 1.23366,-0.76447 1.97873,-0.98072 0.74471,-0.21979 1.52082,-0.32809 2.33186,-0.32809 0.65334,0 1.24672,0.0504 1.78118,0.15522 0.53445,0.1009 0.99765,0.21343 1.39523,0.32915 0.4004,0.11465 0.71438,0.22577 0.94545,0.32667 0.23177,0.10477 0.37218,0.15487 0.42509,0.15487 0.0617,0 0.11854,-0.0307 0.16193,-0.097 0.0462,-0.0617 0.0811,-0.11641 0.1083,-0.15487 l 0.28822,0.23248 -1.50424,2.33504 -0.19297,-0.13476 c 0,-0.0384 -0.004,-0.0773 -0.008,-0.11571 -0.007,-0.0388 -0.0148,-0.0822 -0.0307,-0.13512 -0.0226,-0.13864 -0.15416,-0.28575 -0.38523,-0.43215 -0.22931,-0.14675 -0.51541,-0.27905 -0.85761,-0.39405 -0.33972,-0.11536 -0.69885,-0.21202 -1.07667,-0.28928 -0.37853,-0.0773 -0.72955,-0.11571 -1.04987,-0.11571 -0.54046,0 -1.05798,0.0773 -1.55187,0.23142 -0.49424,0.15417 -0.92675,0.37783 -1.29046,0.67099 -0.36583,0.29739 -0.65899,0.65934 -0.87877,1.08832 -0.21625,0.43109 -0.32526,0.9211 -0.32526,1.47214 0,0.55315 0.10901,1.04528 0.32526,1.47355 0.21978,0.4318 0.51294,0.79446 0.87877,1.08761 0.36371,0.29704 0.79622,0.5207 1.29046,0.67487 0.49389,0.15451 1.01141,0.23142 1.55187,0.23142 0.40887,0 0.84102,-0.0487 1.2887,-0.14429 0.45191,-0.0952 0.86078,-0.21837 1.23543,-0.36512 0.37076,-0.15028 0.68333,-0.31644 0.93415,-0.50165 0.25083,-0.18521 0.37465,-0.36301 0.37465,-0.52917 0,-0.0924 -0.0268,-0.16968 -0.0773,-0.23142 l 0.26988,-0.15452 1.2707,2.04188 z"
       style="fill:#b01220;fill-opacity:1;fill-rule:nonzero;stroke:none;stroke-width:0.352778" />
    <path
       id="path45"
       d="m 136.77223,113.15224 c 1.04775,10e-4 1.89618,0.8509 1.89512,1.89865 -0.001,1.0474 -0.85125,1.89583 -1.89865,1.89512 z"
       style="fill:#d8c681;fill-opacity:1;fill-rule:nonzero;stroke:none;stroke-width:0.352778" />
    <path
       id="path46"
       d="m 136.77226,113.15224 c -1.62137,-0.002 -2.93441,-1.31692 -2.93299,-2.93829 0.002,-1.62136 1.31727,-2.9344 2.93863,-2.93299 z"
       style="fill:#d8c681;fill-opacity:1;fill-rule:nonzero;stroke:none;stroke-width:0.352778" />
    <path
       id="path47"
       d="m 136.78122,103.57372 c 0.64276,7.1e-4 1.16452,-0.51999 1.16522,-1.16311 3.6e-4,-0.64276 -0.51999,-1.16452 -1.1631,-1.16487 -0.64276,-7.1e-4 -1.16452,0.51999 -1.16523,1.16276 -3.5e-4,0.64276 0.52035,1.16451 1.16311,1.16522 m -4.87045,-1.16875 c 0.002,-2.690286 2.18581,-4.869394 4.87609,-4.866925 2.69064,0.0025 4.8694,2.185811 4.86693,4.876095 -0.002,2.69064 -2.18546,4.86939 -4.8761,4.86692 -2.69028,-0.002 -4.86939,-2.18546 -4.86692,-4.87609"
       style="fill:#d8c681;fill-opacity:1;fill-rule:nonzero;stroke:none;stroke-width:0.352778" />
    <path
       id="path48"
       d="m 143.72935,105.16351 c 0.15699,-0.0166 0.25894,-0.0444 0.30551,-0.084 0.0466,-0.0395 0.0699,-0.13935 0.0699,-0.29951 v -1.899 c 0,-0.1517 -0.0229,-0.25083 -0.0688,-0.29704 -0.0459,-0.0466 -0.14816,-0.0755 -0.30656,-0.0868 v -0.079 h 2.26801 l 0.0145,0.61066 h -0.1083 c -0.036,-0.18803 -0.0903,-0.30974 -0.16263,-0.36512 -0.0723,-0.0554 -0.23354,-0.0829 -0.48366,-0.0829 h -0.58102 c -0.0628,0 -0.1016,0.01 -0.11607,0.03 -0.0148,0.0201 -0.0219,0.0582 -0.0219,0.11359 v 0.95286 h 0.65864 c 0.18203,0 0.29809,-0.0272 0.34819,-0.0808 0.0501,-0.054 0.0903,-0.16333 0.121,-0.32773 h 0.0998 v 0.98601 h -0.0998 c -0.0321,-0.16545 -0.073,-0.27481 -0.12312,-0.32843 -0.0501,-0.0536 -0.16545,-0.0804 -0.34607,-0.0804 h -0.65864 v 1.05692 c 0,0.085 0.0268,0.13476 0.0804,0.15028 0.0533,0.0152 0.21379,0.0229 0.48119,0.0229 0.28928,0 0.50306,-0.0318 0.64065,-0.0949 0.13793,-0.0631 0.26176,-0.2166 0.37147,-0.45967 h 0.11889 l -0.19403,0.72143 h -2.30752 z"
       style="fill:#231f20;fill-opacity:1;fill-rule:nonzero;stroke:none;stroke-width:0.352778" />
    <path
       id="path49"
       d="m 146.23055,105.16351 c 0.1143,-0.0123 0.20108,-0.0427 0.26035,-0.0907 0.0593,-0.048 0.17709,-0.18133 0.35348,-0.3997 l 0.65899,-0.81527 -0.46743,-0.68545 c -0.2039,-0.29845 -0.34678,-0.48436 -0.42968,-0.55739 -0.0825,-0.073 -0.19262,-0.11218 -0.3302,-0.11782 v -0.079 h 1.28446 v 0.079 c -0.12382,0.004 -0.20426,0.0127 -0.242,0.025 -0.0565,0.018 -0.0847,0.0575 -0.0847,0.11854 0,0.0388 0.0138,0.085 0.0413,0.13899 0.0138,0.0279 0.0332,0.0596 0.0582,0.0956 l 0.44027,0.63818 0.47907,-0.58279 c 0.0702,-0.0847 0.11783,-0.15275 0.14288,-0.20426 0.0152,-0.0303 0.0226,-0.0582 0.0226,-0.0832 0,-0.0624 -0.0303,-0.10443 -0.091,-0.12524 -0.037,-0.0123 -0.10513,-0.0194 -0.20355,-0.0208 v -0.079 h 1.01106 v 0.079 c -0.11395,0.003 -0.20215,0.0208 -0.26459,0.0543 -0.0988,0.0543 -0.22119,0.1711 -0.36689,0.35066 l -0.617,0.774 0.80856,1.17087 c 0.0864,0.12629 0.1584,0.20637 0.2159,0.24059 0.0575,0.0339 0.14182,0.0593 0.25294,0.0759 v 0.0794 h -1.25483 v -0.0794 c 0.12065,-0.003 0.20461,-0.0134 0.25224,-0.0314 0.0473,-0.0183 0.0709,-0.0533 0.0709,-0.10512 0,-0.0448 -0.0314,-0.11924 -0.0949,-0.22296 -0.0635,-0.10372 -0.23812,-0.36548 -0.52458,-0.78599 l -0.50094,0.629 c -0.0734,0.0928 -0.12418,0.16052 -0.15311,0.20356 -0.0455,0.0677 -0.0681,0.11818 -0.0681,0.15134 0,0.0607 0.0356,0.10371 0.10725,0.12841 0.0427,0.0152 0.11536,0.0261 0.21802,0.0332 v 0.0794 h -0.98496 z"
       style="fill:#231f20;fill-opacity:1;fill-rule:nonzero;stroke:none;stroke-width:0.352778" />
    <path
       id="path50"
       d="m 151.22281,102.43689 c 0.16263,0.0459 0.25365,0.0688 0.27305,0.0688 0.0402,0 0.0787,-0.0113 0.11465,-0.0335 0.036,-0.0222 0.061,-0.0568 0.0751,-0.10407 h 0.0896 l 0.0395,0.95885 h -0.0977 c -0.0572,-0.1905 -0.13158,-0.34396 -0.22331,-0.46073 -0.17497,-0.21943 -0.41063,-0.32914 -0.70661,-0.32914 -0.2988,0 -0.54293,0.11783 -0.73272,0.35419 -0.18979,0.23636 -0.28469,0.56162 -0.28469,0.97578 0,0.38065 0.0998,0.68474 0.29951,0.91193 0.19932,0.22719 0.45191,0.34078 0.75741,0.34078 0.22119,0 0.42474,-0.0529 0.61066,-0.15839 0.10724,-0.0596 0.22472,-0.15029 0.35242,-0.27094 l 0.0794,0.079 c -0.0945,0.11959 -0.21202,0.22436 -0.35243,0.31503 -0.23883,0.15275 -0.49812,0.22895 -0.77752,0.22895 -0.45861,0 -0.82268,-0.1464 -1.0922,-0.43956 -0.24906,-0.27129 -0.37324,-0.6096 -0.37324,-1.0153 0,-0.41557 0.13124,-0.76447 0.39406,-1.04633 0.27657,-0.29634 0.63641,-0.44415 1.07985,-0.44415 0.15416,0 0.31256,0.0229 0.47519,0.0688"
       style="fill:#231f20;fill-opacity:1;fill-rule:nonzero;stroke:none;stroke-width:0.352778" />
    <path
       id="path51"
       d="m 151.9604,105.16351 c 0.15699,-0.0166 0.25894,-0.0444 0.30551,-0.084 0.0466,-0.0395 0.0699,-0.13935 0.0699,-0.29951 v -1.899 c 0,-0.1517 -0.0229,-0.25083 -0.0688,-0.29704 -0.0459,-0.0466 -0.14816,-0.0755 -0.30656,-0.0868 v -0.079 h 2.26801 l 0.0145,0.61066 h -0.1083 c -0.036,-0.18803 -0.0903,-0.30974 -0.16263,-0.36512 -0.0723,-0.0554 -0.23354,-0.0829 -0.48366,-0.0829 h -0.58102 c -0.0628,0 -0.10125,0.01 -0.11607,0.03 -0.0148,0.0201 -0.0219,0.0582 -0.0219,0.11359 v 0.95286 h 0.65864 c 0.18203,0 0.29809,-0.0272 0.34819,-0.0808 0.0501,-0.054 0.0903,-0.16333 0.12065,-0.32773 h 0.10019 v 0.98601 h -0.10019 c -0.0318,-0.16545 -0.0727,-0.27481 -0.12277,-0.32843 -0.0501,-0.0536 -0.16545,-0.0804 -0.34607,-0.0804 h -0.65864 v 1.05692 c 0,0.085 0.0268,0.13476 0.0804,0.15028 0.0533,0.0152 0.21379,0.0229 0.48119,0.0229 0.28928,0 0.50306,-0.0318 0.64065,-0.0949 0.13793,-0.0631 0.26176,-0.2166 0.37147,-0.45967 h 0.11889 l -0.19403,0.72143 h -2.30752 z"
       style="fill:#231f20;fill-opacity:1;fill-rule:nonzero;stroke:none;stroke-width:0.352778" />
    <path
       id="path52"
       d="m 154.46579,105.16351 c 0.15699,-0.0166 0.25894,-0.0444 0.30551,-0.084 0.0466,-0.0395 0.0699,-0.13935 0.0699,-0.29951 v -1.899 c 0,-0.1517 -0.0233,-0.25083 -0.0692,-0.29704 -0.0459,-0.0466 -0.14781,-0.0755 -0.30621,-0.0868 v -0.079 h 1.20509 v 0.079 c -0.15734,0.008 -0.26247,0.0342 -0.31609,0.0773 -0.0533,0.043 -0.0801,0.13547 -0.0801,0.27729 v 2.05105 c 0,0.0473 0.008,0.0847 0.024,0.11148 0.0159,0.0272 0.0512,0.0444 0.10513,0.0511 0.0321,0.004 0.066,0.007 0.10124,0.008 0.0356,0.001 0.10196,0.002 0.19932,0.002 0.37994,0 0.63677,-0.0314 0.77012,-0.0938 0.1337,-0.0624 0.26317,-0.22225 0.3884,-0.47942 h 0.10831 l -0.20849,0.74012 h -2.29694 z"
       style="fill:#231f20;fill-opacity:1;fill-rule:nonzero;stroke:none;stroke-width:0.352778" />
    <path
       id="path53"
       d="m 156.97108,105.16351 c 0.15699,-0.0166 0.25894,-0.0444 0.30551,-0.084 0.0466,-0.0395 0.0699,-0.13935 0.0699,-0.29951 v -1.899 c 0,-0.1517 -0.0229,-0.25083 -0.0688,-0.29704 -0.0459,-0.0466 -0.14816,-0.0755 -0.30656,-0.0868 v -0.079 h 2.26801 l 0.0145,0.61066 h -0.1083 c -0.036,-0.18803 -0.0903,-0.30974 -0.16263,-0.36512 -0.0723,-0.0554 -0.23354,-0.0829 -0.48366,-0.0829 h -0.58102 c -0.0628,0 -0.10125,0.01 -0.11607,0.03 -0.0148,0.0201 -0.0219,0.0582 -0.0219,0.11359 v 0.95286 h 0.65864 c 0.18203,0 0.29809,-0.0272 0.34819,-0.0808 0.0501,-0.054 0.0903,-0.16333 0.121,-0.32773 h 0.0998 v 0.98601 h -0.0998 c -0.0321,-0.16545 -0.073,-0.27481 -0.12312,-0.32843 -0.0501,-0.0536 -0.16545,-0.0804 -0.34607,-0.0804 H 157.78 v 1.05692 c 0,0.085 0.0268,0.13476 0.0804,0.15028 0.0536,0.0152 0.21379,0.0229 0.48119,0.0229 0.28928,0 0.50306,-0.0318 0.64065,-0.0949 0.13793,-0.0631 0.26176,-0.2166 0.37147,-0.45967 h 0.11889 l -0.19403,0.72143 h -2.30752 z"
       style="fill:#231f20;fill-opacity:1;fill-rule:nonzero;stroke:none;stroke-width:0.352778" />
    <path
       id="path54"
       d="m 159.47644,105.16351 c 0.17639,-0.018 0.28963,-0.0579 0.33972,-0.11994 0.0501,-0.0617 0.0752,-0.20497 0.0752,-0.43004 v -1.88101 l -0.0586,-0.0684 c -0.0625,-0.0737 -0.11572,-0.11924 -0.15946,-0.13653 -0.0437,-0.0173 -0.10936,-0.0275 -0.19685,-0.0303 v -0.079 h 0.72849 l 1.64782,2.04259 V 103.042 c 0,-0.23318 -0.0346,-0.38523 -0.10407,-0.45543 -0.0459,-0.0455 -0.14746,-0.0755 -0.30445,-0.0893 v -0.079 h 1.0026 v 0.079 c -0.16228,0.0169 -0.27093,0.0564 -0.32491,0.11888 -0.0543,0.0624 -0.0815,0.20567 -0.0815,0.42933 v 2.2472 h -0.073 l -1.88842,-2.34104 v 1.66194 c 0,0.23354 0.0339,0.38559 0.10196,0.45614 0.0445,0.0459 0.14393,0.0773 0.29809,0.0938 v 0.0794 h -1.00259 z"
       style="fill:#231f20;fill-opacity:1;fill-rule:nonzero;stroke:none;stroke-width:0.352778" />
    <path
       id="path55"
       d="m 164.4645,102.43689 c 0.16263,0.0459 0.25365,0.0688 0.27305,0.0688 0.0402,0 0.0787,-0.0113 0.11465,-0.0335 0.036,-0.0222 0.061,-0.0568 0.0751,-0.10407 h 0.0896 l 0.0395,0.95885 h -0.0977 c -0.0572,-0.1905 -0.13158,-0.34396 -0.22331,-0.46073 -0.17497,-0.21943 -0.41063,-0.32914 -0.70661,-0.32914 -0.2988,0 -0.54293,0.11783 -0.73272,0.35419 -0.18979,0.23636 -0.28469,0.56162 -0.28469,0.97578 0,0.38065 0.0998,0.68474 0.29951,0.91193 0.19932,0.22719 0.45155,0.34078 0.75741,0.34078 0.22119,0 0.42474,-0.0529 0.61101,-0.15839 0.10689,-0.0596 0.22437,-0.15029 0.35207,-0.27094 l 0.0794,0.079 c -0.0945,0.11959 -0.21202,0.22436 -0.35243,0.31503 -0.23883,0.15275 -0.49812,0.22895 -0.77752,0.22895 -0.45861,0 -0.82268,-0.1464 -1.0922,-0.43956 -0.24906,-0.27129 -0.37324,-0.6096 -0.37324,-1.0153 0,-0.41557 0.13124,-0.76447 0.39406,-1.04633 0.27657,-0.29634 0.63641,-0.44415 1.07985,-0.44415 0.15416,0 0.31256,0.0229 0.47519,0.0688"
       style="fill:#231f20;fill-opacity:1;fill-rule:nonzero;stroke:none;stroke-width:0.352778" />
    <path
       id="path56"
       d="m 165.22301,105.16351 c 0.17357,-0.0123 0.2861,-0.0384 0.33761,-0.0776 0.0515,-0.0395 0.0773,-0.14146 0.0773,-0.30586 v -1.899 c 0,-0.15734 -0.0258,-0.25824 -0.0773,-0.30339 -0.0515,-0.0452 -0.16404,-0.072 -0.33761,-0.0804 v -0.079 h 1.2633 v 0.079 c -0.17392,0.008 -0.28646,0.0353 -0.33796,0.0804 -0.0512,0.0451 -0.0769,0.14605 -0.0769,0.30339 v 1.899 c 0,0.1644 0.0258,0.26635 0.0769,0.30586 0.0515,0.0392 0.16404,0.0653 0.33796,0.0776 v 0.0794 h -1.2633 z"
       style="fill:#231f20;fill-opacity:1;fill-rule:nonzero;stroke:none;stroke-width:0.352778" />
    <path
       id="path57"
       d="m 168.37501,104.14624 -0.4893,-1.17581 -0.49142,1.17581 z m -1.83868,1.09643 v -0.079 c 0.10972,-0.0123 0.19227,-0.054 0.24695,-0.12418 0.055,-0.0702 0.14922,-0.26211 0.28222,-0.57644 l 0.8897,-2.09514 h 0.085 l 1.06363,2.42041 c 0.0709,0.16051 0.12735,0.25964 0.16968,0.29739 0.0427,0.0381 0.1136,0.0639 0.21379,0.078 v 0.079 h -1.08585 v -0.079 c 0.12488,-0.0113 0.20531,-0.0247 0.2413,-0.0406 0.0363,-0.0159 0.0543,-0.055 0.0543,-0.11712 0,-0.0208 -0.007,-0.0575 -0.0208,-0.11007 -0.0138,-0.0526 -0.0335,-0.10795 -0.0586,-0.1658 l -0.17074,-0.41099 h -1.12501 c -0.11113,0.2794 -0.1771,0.44979 -0.19862,0.51153 -0.0215,0.0614 -0.0324,0.11007 -0.0324,0.14605 0,0.072 0.0293,0.12171 0.0875,0.14958 0.036,0.0166 0.10407,0.0289 0.2039,0.0374 v 0.079 z"
       style="fill:#231f20;fill-opacity:1;fill-rule:nonzero;stroke:none;stroke-width:0.352778" />
    <path
       id="path58"
       d="m 143.95658,108.37633 c 0.0723,0.19191 0.15699,0.34466 0.254,0.45861 0.16933,0.19861 0.37959,0.2981 0.63077,0.2981 0.13582,0 0.25364,-0.043 0.35277,-0.12912 0.0991,-0.0864 0.14888,-0.20637 0.14888,-0.36089 0,-0.13864 -0.0501,-0.25964 -0.14993,-0.36266 -0.0653,-0.0653 -0.2025,-0.16333 -0.41205,-0.29386 l -0.36407,-0.22719 c -0.10971,-0.0695 -0.19685,-0.1397 -0.26246,-0.21061 -0.12065,-0.13476 -0.18133,-0.28363 -0.18133,-0.44591 0,-0.21554 0.0716,-0.39476 0.21484,-0.53798 0.14323,-0.14323 0.33267,-0.21485 0.56903,-0.21485 0.0974,0 0.21449,0.024 0.35137,0.072 0.13688,0.048 0.21484,0.072 0.2346,0.072 0.0526,0 0.0893,-0.0123 0.10936,-0.0374 0.0201,-0.025 0.0356,-0.0607 0.0469,-0.10654 h 0.0875 l 0.0938,0.90911 h -0.1023 c -0.0695,-0.27375 -0.18098,-0.46496 -0.33443,-0.57326 -0.15346,-0.1083 -0.30551,-0.16263 -0.45544,-0.16263 -0.11677,0 -0.21872,0.0342 -0.30551,0.10301 -0.0868,0.0688 -0.13017,0.16439 -0.13017,0.28681 0,0.10971 0.0332,0.20355 0.0998,0.28116 0.0663,0.0794 0.17003,0.16228 0.31009,0.24836 l 0.375,0.23142 c 0.2346,0.14429 0.40005,0.27693 0.49636,0.39793 0.0949,0.12242 0.14252,0.26706 0.14252,0.43357 0,0.22401 -0.0847,0.41063 -0.25329,0.56091 -0.16898,0.14993 -0.38453,0.22508 -0.64735,0.22508 -0.13194,0 -0.26988,-0.025 -0.41381,-0.0751 -0.14393,-0.0497 -0.22613,-0.0748 -0.24694,-0.0748 -0.0501,0 -0.084,0.0152 -0.10125,0.0459 -0.0173,0.0303 -0.0289,0.0631 -0.0342,0.0977 h -0.0938 l -0.12735,-0.90876 z"
       style="fill:#231f20;fill-opacity:1;fill-rule:nonzero;stroke:none;stroke-width:0.352778" />
    <path
       id="path59"
       d="m 145.91591,109.15597 c 0.15699,-0.0166 0.25859,-0.0444 0.30515,-0.084 0.0469,-0.0395 0.0699,-0.13935 0.0699,-0.29951 v -1.89935 c 0,-0.15135 -0.0229,-0.25012 -0.0688,-0.29669 -0.0459,-0.0466 -0.14781,-0.0755 -0.30621,-0.0868 v -0.079 h 2.26801 l 0.0145,0.61066 h -0.1083 c -0.036,-0.18803 -0.0903,-0.30974 -0.16263,-0.36512 -0.0723,-0.0554 -0.23354,-0.0829 -0.48366,-0.0829 h -0.58102 c -0.0628,0 -0.1016,0.01 -0.11607,0.03 -0.0148,0.0201 -0.0219,0.0582 -0.0219,0.11359 v 0.95286 h 0.65864 c 0.18203,0 0.29809,-0.0272 0.34819,-0.0811 0.0501,-0.0536 0.0903,-0.16298 0.12065,-0.32738 h 0.10019 v 0.98601 h -0.10019 c -0.0317,-0.16545 -0.0727,-0.27481 -0.12277,-0.32843 -0.0501,-0.0536 -0.16545,-0.0804 -0.34607,-0.0804 h -0.65864 v 1.05692 c 0,0.085 0.0265,0.13476 0.0801,0.15028 0.0536,0.0152 0.21414,0.0229 0.48154,0.0229 0.28928,0 0.50306,-0.0317 0.64065,-0.0949 0.13793,-0.0631 0.26176,-0.2166 0.37147,-0.45967 h 0.11889 l -0.19403,0.72108 h -2.30752 z"
       style="fill:#231f20;fill-opacity:1;fill-rule:nonzero;stroke:none;stroke-width:0.352778" />
    <path
       id="path60"
       d="m 149.49279,106.41055 v 0.073 c -0.10689,0.001 -0.17956,0.008 -0.21837,0.0212 -0.0681,0.0226 -0.1023,0.0684 -0.1023,0.13758 0,0.0353 0.0123,0.0847 0.0367,0.14817 0.0243,0.0635 0.0695,0.16898 0.13582,0.31644 l 0.66816,1.48626 0.60678,-1.60902 c 0.0265,-0.0713 0.0469,-0.13124 0.061,-0.18098 0.0138,-0.0494 0.0208,-0.0896 0.0208,-0.12065 0,-0.0833 -0.0356,-0.1397 -0.10619,-0.16933 -0.0416,-0.0169 -0.11042,-0.0268 -0.20602,-0.0296 v -0.073 h 0.87312 v 0.073 c -0.0903,0.0123 -0.15698,0.0367 -0.20002,0.073 -0.0653,0.054 -0.12982,0.16334 -0.19368,0.32738 l -0.94579,2.40136 h -0.0639 l -1.05515,-2.34668 c -0.0893,-0.19897 -0.16052,-0.32279 -0.21379,-0.37148 -0.0536,-0.049 -0.13194,-0.0765 -0.2346,-0.0836 v -0.073 z"
       style="fill:#231f20;fill-opacity:1;fill-rule:nonzero;stroke:none;stroke-width:0.352778" />
    <path
       id="path61"
       d="m 151.23107,109.15597 c 0.15699,-0.0166 0.25894,-0.0444 0.30551,-0.084 0.0466,-0.0395 0.0699,-0.13935 0.0699,-0.29951 v -1.89935 c 0,-0.15135 -0.0229,-0.25012 -0.0688,-0.29669 -0.0459,-0.0466 -0.14816,-0.0755 -0.30656,-0.0868 v -0.079 h 2.26801 l 0.0145,0.61066 h -0.1083 c -0.036,-0.18803 -0.0903,-0.30974 -0.16263,-0.36512 -0.0723,-0.0554 -0.23354,-0.0829 -0.48366,-0.0829 h -0.58102 c -0.0628,0 -0.10125,0.01 -0.11607,0.03 -0.0148,0.0201 -0.0219,0.0582 -0.0219,0.11359 v 0.95286 h 0.65864 c 0.18203,0 0.29809,-0.0272 0.34819,-0.0811 0.0501,-0.0536 0.0903,-0.16298 0.121,-0.32738 h 0.0998 v 0.98601 h -0.0998 c -0.0321,-0.16545 -0.073,-0.27481 -0.12312,-0.32843 -0.0501,-0.0536 -0.16545,-0.0804 -0.34607,-0.0804 h -0.65864 v 1.05692 c 0,0.085 0.0268,0.13476 0.0804,0.15028 0.0536,0.0152 0.21379,0.0229 0.48119,0.0229 0.28928,0 0.50306,-0.0317 0.64065,-0.0949 0.13793,-0.0631 0.26176,-0.2166 0.37147,-0.45967 h 0.11889 l -0.19403,0.72108 h -2.30752 z"
       style="fill:#231f20;fill-opacity:1;fill-rule:nonzero;stroke:none;stroke-width:0.352778" />
    <path
       id="path62"
       d="m 155.20409,107.67589 c 0.22648,-0.0928 0.33972,-0.26776 0.33972,-0.52423 0,-0.24694 -0.10124,-0.41557 -0.30409,-0.50553 -0.10865,-0.0487 -0.25224,-0.073 -0.43145,-0.073 -0.121,0 -0.19508,0.009 -0.22225,0.0261 -0.0272,0.0173 -0.0406,0.0579 -0.0406,0.12171 v 1.05093 c 0.30692,-0.0113 0.5267,-0.043 0.65864,-0.096 m -1.45909,1.48026 c 0.16404,-0.0155 0.266,-0.0473 0.30621,-0.0956 0.0406,-0.0483 0.0607,-0.16122 0.0607,-0.33796 v -1.84926 c 0,-0.14993 -0.0226,-0.24835 -0.0677,-0.29492 -0.0452,-0.0466 -0.14499,-0.0762 -0.29916,-0.0885 v -0.0794 h 1.18181 c 0.24624,0 0.4512,0.0314 0.61489,0.0938 0.3115,0.11782 0.46708,0.33513 0.46708,0.65158 0,0.21237 -0.0692,0.37535 -0.20744,0.48895 -0.13829,0.11394 -0.32632,0.18873 -0.56374,0.22507 l 0.87983,1.08338 c 0.054,0.0663 0.1083,0.11465 0.16228,0.14464 0.0543,0.0303 0.12382,0.0497 0.20849,0.0582 v 0.079 h -0.68756 l -1.06786,-1.31551 -0.18733,0.0106 v 0.84138 c 0,0.15804 0.024,0.25788 0.072,0.30021 0.048,0.0423 0.1524,0.0702 0.31362,0.0843 v 0.079 H 153.745 Z"
       style="fill:#231f20;fill-opacity:1;fill-rule:nonzero;stroke:none;stroke-width:0.352778" />
    <path
       id="path63"
       d="m 157.27525,108.81931 c 0.17674,0.21484 0.3937,0.32209 0.65123,0.32209 0.25153,0 0.46708,-0.10443 0.64558,-0.31362 0.17886,-0.2092 0.26846,-0.54399 0.26846,-1.00401 0,-0.46531 -0.0907,-0.80186 -0.27128,-1.00894 -0.18098,-0.20708 -0.39511,-0.31045 -0.64276,-0.31045 -0.25612,0 -0.47272,0.10725 -0.65017,0.32209 -0.17745,0.21484 -0.266,0.54716 -0.266,0.9973 0,0.44909 0.0882,0.7807 0.26494,0.99554 m -0.31926,-2.09197 c 0.26246,-0.25153 0.58561,-0.37712 0.96943,-0.37712 0.38488,0 0.70873,0.12629 0.9712,0.37923 0.28504,0.27376 0.42756,0.63853 0.42756,1.09432 0,0.46285 -0.14746,0.83115 -0.44203,1.1049 -0.26423,0.24483 -0.58314,0.36689 -0.95673,0.36689 -0.4004,0 -0.73237,-0.13547 -0.9966,-0.4064 -0.26811,-0.27658 -0.40216,-0.63182 -0.40216,-1.06539 0,-0.45579 0.14287,-0.82127 0.42933,-1.09643"
       style="fill:#231f20;fill-opacity:1;fill-rule:nonzero;stroke:none;stroke-width:0.352778" />
    <path
       id="path64"
       d="m 144.55725,112.8117 c 0.17674,0.21484 0.3937,0.32209 0.65123,0.32209 0.25188,0 0.46708,-0.10443 0.64593,-0.31362 0.17886,-0.2092 0.26811,-0.54399 0.26811,-1.00366 0,-0.46566 -0.0907,-0.80186 -0.27128,-1.00894 -0.18098,-0.20743 -0.39511,-0.3108 -0.64276,-0.3108 -0.25612,0 -0.47272,0.10725 -0.65017,0.32209 -0.17745,0.21484 -0.266,0.54716 -0.266,0.99765 0,0.44874 0.0882,0.7807 0.26494,0.99519 m -0.31926,-2.09197 c 0.26282,-0.25153 0.58561,-0.37712 0.96943,-0.37712 0.38488,0 0.70873,0.12629 0.9712,0.37923 0.28504,0.27376 0.42756,0.63853 0.42756,1.09467 0,0.4625 -0.14746,0.8308 -0.44203,1.10455 -0.26423,0.24483 -0.58314,0.36689 -0.95673,0.36689 -0.4004,0 -0.73237,-0.13547 -0.9966,-0.4064 -0.26811,-0.27658 -0.40216,-0.63147 -0.40216,-1.06504 0,-0.45614 0.14322,-0.82162 0.42933,-1.09678"
       style="fill:#231f20;fill-opacity:1;fill-rule:nonzero;stroke:none;stroke-width:0.352778" />
    <path
       id="path65"
       d="m 148.77722,110.42181 c 0.16263,0.0459 0.25365,0.0688 0.27305,0.0688 0.0402,0 0.0787,-0.0113 0.11465,-0.0335 0.036,-0.0222 0.061,-0.0568 0.0751,-0.10407 h 0.0896 l 0.0395,0.95885 h -0.0981 c -0.0568,-0.1905 -0.13123,-0.34396 -0.22296,-0.46073 -0.17497,-0.21943 -0.41063,-0.32914 -0.70661,-0.32914 -0.2988,0 -0.54293,0.11783 -0.73272,0.35419 -0.18979,0.23636 -0.28469,0.56162 -0.28469,0.97578 0,0.38065 0.0998,0.68474 0.29915,0.91193 0.19968,0.22719 0.45227,0.34078 0.75777,0.34078 0.22119,0 0.42474,-0.0529 0.61101,-0.15839 0.10689,-0.06 0.22437,-0.15029 0.35207,-0.27094 l 0.0794,0.079 c -0.0945,0.11959 -0.21202,0.22436 -0.35243,0.31503 -0.23883,0.15275 -0.49812,0.22895 -0.77752,0.22895 -0.45861,0 -0.82268,-0.1464 -1.0922,-0.43956 -0.24906,-0.27129 -0.37324,-0.6096 -0.37324,-1.0153 0,-0.41557 0.13124,-0.76447 0.39406,-1.04633 0.27657,-0.29634 0.63641,-0.44415 1.07985,-0.44415 0.15416,0 0.31256,0.0229 0.47519,0.0688"
       style="fill:#231f20;fill-opacity:1;fill-rule:nonzero;stroke:none;stroke-width:0.352778" />
    <path
       id="path66"
       d="m 149.59545,113.14843 c 0.16686,-0.018 0.27093,-0.0487 0.31256,-0.0924 0.042,-0.0434 0.0628,-0.15734 0.0628,-0.34113 v -1.84891 c 0,-0.15311 -0.0233,-0.25224 -0.0699,-0.2981 -0.0466,-0.0459 -0.14852,-0.0744 -0.30551,-0.0857 v -0.079 h 1.18392 v 0.079 c -0.15628,0.0113 -0.25753,0.0399 -0.30445,0.0857 -0.0473,0.0459 -0.0705,0.14499 -0.0705,0.2981 v 0.8315 h 1.29646 v -0.8315 c 0,-0.15311 -0.0229,-0.25224 -0.0688,-0.2981 -0.0459,-0.0459 -0.14782,-0.0744 -0.30657,-0.0857 v -0.079 h 1.18428 v 0.079 c -0.15699,0.0113 -0.25894,0.0399 -0.30551,0.0857 -0.0466,0.0459 -0.0699,0.14499 -0.0699,0.2981 v 1.899 c 0,0.15487 0.0233,0.254 0.0699,0.29739 0.0466,0.0438 0.14852,0.0723 0.30551,0.0861 v 0.0794 h -1.18428 v -0.0794 c 0.16828,-0.0166 0.2727,-0.0469 0.31397,-0.0914 0.0409,-0.0441 0.0614,-0.1584 0.0614,-0.34219 v -0.82974 h -1.29646 v 0.87983 c 0,0.15487 0.0233,0.25435 0.0705,0.29845 0.0469,0.0441 0.14817,0.0727 0.30445,0.085 v 0.0794 h -1.18392 z"
       style="fill:#231f20;fill-opacity:1;fill-rule:nonzero;stroke:none;stroke-width:0.352778" />
    <path
       id="path67"
       d="m 153.61366,112.8117 c 0.17674,0.21484 0.3937,0.32209 0.65123,0.32209 0.25188,0 0.46708,-0.10443 0.64593,-0.31362 0.17851,-0.2092 0.26811,-0.54399 0.26811,-1.00366 0,-0.46566 -0.0903,-0.80186 -0.27128,-1.00894 -0.18098,-0.20743 -0.39511,-0.3108 -0.64276,-0.3108 -0.25612,0 -0.47272,0.10725 -0.65017,0.32209 -0.17745,0.21484 -0.266,0.54716 -0.266,0.99765 0,0.44874 0.0882,0.7807 0.26494,0.99519 m -0.31926,-2.09197 c 0.26282,-0.25153 0.58561,-0.37712 0.96943,-0.37712 0.38488,0 0.70873,0.12629 0.9712,0.37923 0.28504,0.27376 0.42756,0.63853 0.42756,1.09467 0,0.4625 -0.14746,0.8308 -0.44203,1.10455 -0.26423,0.24483 -0.58279,0.36689 -0.95673,0.36689 -0.4004,0 -0.73237,-0.13547 -0.9966,-0.4064 -0.26811,-0.27658 -0.40216,-0.63147 -0.40216,-1.06504 0,-0.45614 0.14322,-0.82162 0.42933,-1.09678"
       style="fill:#231f20;fill-opacity:1;fill-rule:nonzero;stroke:none;stroke-width:0.352778" />
    <path
       id="path68"
       d="m 157.67981,112.13112 -0.4893,-1.17581 -0.49142,1.17581 z m -1.83868,1.09643 v -0.079 c 0.10972,-0.0123 0.19227,-0.0536 0.24695,-0.12418 0.055,-0.0702 0.14922,-0.26211 0.28222,-0.57644 l 0.8897,-2.09479 h 0.085 l 1.06363,2.42006 c 0.0709,0.16051 0.12735,0.25964 0.16968,0.29739 0.0427,0.0381 0.1136,0.0642 0.21379,0.078 v 0.079 h -1.0855 v -0.079 c 0.12453,-0.0113 0.20496,-0.0247 0.24095,-0.0406 0.0363,-0.0159 0.0543,-0.055 0.0543,-0.11712 0,-0.0208 -0.007,-0.0575 -0.0208,-0.11007 -0.0138,-0.0526 -0.0335,-0.10795 -0.0586,-0.1658 l -0.17074,-0.41099 h -1.12501 c -0.11113,0.2794 -0.1771,0.45015 -0.19862,0.51153 -0.0215,0.0614 -0.0324,0.11042 -0.0324,0.14605 0,0.072 0.0293,0.12171 0.0875,0.14958 0.036,0.0166 0.10407,0.0289 0.2039,0.0374 v 0.079 z"
       style="fill:#231f20;fill-opacity:1;fill-rule:nonzero;stroke:none;stroke-width:0.352778" />
  </g>
</svg>
